<?xml version="1.0" encoding="utf-8"?>
<!-- Generator: Adobe Illustrator 23.0.3, SVG Export Plug-In . SVG Version: 6.00 Build 0)  -->
<svg version="1.1" xmlns="http://www.w3.org/2000/svg" xmlns:xlink="http://www.w3.org/1999/xlink" x="0px" y="0px"
	 viewBox="0 0 1920 1080" style="enable-background:new 0 0 1920 1080;" xml:space="preserve">
<style type="text/css">
	.st0{fill:#C69C6D;stroke:#000000;stroke-width:4;stroke-miterlimit:10;}
	.st1{fill:none;stroke:#FFFFFF;stroke-width:6;stroke-miterlimit:10;}
	.st2{fill:none;stroke:#FFFFFF;stroke-width:4;stroke-miterlimit:10;}
	.st3{fill:#FFFFFF;stroke:#FFFFFF;stroke-width:6;stroke-miterlimit:10;}
</style>
<g id="bg">
	<rect class="st0" width="1920" height="1080"/>
</g>
<g id="Layer_1">
	<path class="st1" d="M1038.5,733.89c19.78-6.23,37.5,21.29,37.5,47.55S1059.21,829,1038.5,829"/>
	<path class="st1" d="M1076.86,784.86l17.41-46.28c1.14-3.03,1.72-6.23,1.72-9.46v-40.09c0-6.95,3.23-13.5,8.73-17.74l22.21-17.09
		c5.08-3.91,8.05-9.95,8.05-16.36v-50.69c0-4.4,2.44-8.44,6.33-10.49L1190,551v34.22c0,7.85-4.38,15.05-11.35,18.66L1109,640"/>
	<path class="st1" d="M1062.44,744.91l-0.4-48.39c-0.02-2.95,0.81-5.85,2.4-8.34l16.87-26.4c2.23-3.49,2.08-7.99-0.37-11.32
		L1053,602l-15,14"/>
	<path class="st1" d="M1041.5,733.89c-19.78-6.23-37.5,21.29-37.5,47.55s16.79,47.55,37.5,47.55"/>
	<path class="st1" d="M1004.14,784.86l-17.41-46.28c-1.14-3.03-1.72-6.23-1.72-9.46v-40.09c0-6.95-3.23-13.5-8.73-17.74
		l-22.21-17.09c-5.08-3.91-8.05-9.95-8.05-16.36v-50.69c0-4.4-2.44-8.44-6.33-10.49L891,551v34.22c0,7.85,4.38,15.05,11.35,18.66
		L972,640"/>
	<path class="st1" d="M1017.56,744.91l0.4-48.39c0.02-2.95-0.81-5.85-2.4-8.34l-16.87-26.4c-2.23-3.49-2.08-7.99,0.37-11.32
		L1028,603l14,13"/>
	<line class="st2" x1="1005" y1="781" x2="1077" y2="781"/>
	<polyline class="st3" points="1061.21,756.96 1039.56,778.23 1018.28,756.58 	"/>
	<path class="st1" d="M1055,600l130.21-84.4c1.15-0.75,2.28-1.53,3.38-2.34c17.79-13.08,28.4-33.9,28.4-56.14V423"/>
	<path class="st1" d="M1190.89,513.5l1.88,2.19c6.63,7.76,18.43,8.32,25.78,1.23L1234,502"/>
	<path class="st1" d="M1095,547.07c0,0,80.15-51.98,80.82-52.47c10.76-7.91,17.18-20.51,17.18-33.96V440"/>
	<path class="st1" d="M1187,480"/>
	<line class="st1" x1="1095" y1="574" x2="1095" y2="513"/>
	<path class="st1" d="M864,423v34.12c0,22.24,10.61,43.06,28.4,56.14c1.1,0.81,2.23,1.59,3.38,2.34L1026,601"/>
	<path class="st1" d="M890.11,511.5l-1.88,2.19c-6.63,7.76-18.43,8.32-25.78,1.23L847,500"/>
	<path class="st1" d="M986,545.07c0,0-80.15-51.98-80.82-52.47C894.42,484.69,888,472.1,888,458.64V438"/>
	<line class="st1" x1="986" y1="574" x2="986" y2="513"/>
</g>
</svg>
