<?xml version="1.0" encoding="utf-8"?>
<!-- Generator: Adobe Illustrator 23.0.3, SVG Export Plug-In . SVG Version: 6.00 Build 0)  -->
<svg version="1.1" xmlns="http://www.w3.org/2000/svg" xmlns:xlink="http://www.w3.org/1999/xlink" x="0px" y="0px"
	 viewBox="0 0 1920 1080" style="enable-background:new 0 0 1920 1080;" xml:space="preserve">
<style type="text/css">
	.st0{fill:#F7931E;}
	.st1{opacity:0.22;fill:#F15A24;}
	.st2{opacity:0.6;fill:#F7931E;}
	.st3{fill:none;stroke:#000000;stroke-width:8;stroke-linecap:round;stroke-linejoin:round;stroke-miterlimit:10;}
	.st4{fill:none;stroke:#000000;stroke-width:2;stroke-linecap:round;stroke-linejoin:round;stroke-miterlimit:10;}
	.st5{fill:none;stroke:#000000;stroke-linecap:round;stroke-linejoin:round;stroke-miterlimit:10;}
	.st6{fill:#CCCCCC;}
	.st7{opacity:0.91;}
	.st8{fill:none;}
	.st9{fill:#B3B3B3;stroke:#000000;stroke-width:2;stroke-linecap:round;stroke-linejoin:round;stroke-miterlimit:10;}
	.st10{opacity:0.65;fill:#DD750E;}
	.st11{opacity:0.32;fill:#DD750E;}
	.st12{fill:#DD750E;}
	.st13{opacity:0.95;}
	.st14{fill:#F15A24;}
	.st15{opacity:0.74;fill:#F7931E;}
	.st16{fill:#FFFFFF;}
	.st17{fill:#1B1464;}
	.st18{opacity:0.3;fill:#FFFFFF;}
	.st19{fill:#FFFFFF;stroke:#000000;stroke-miterlimit:10;}
</style>
<g id="Background">
	<rect class="st0" width="1920" height="1080"/>
	<ellipse class="st1" cx="957.5" cy="713.5" rx="210.5" ry="35.5"/>
</g>
<g id="Color">
	<path class="st2" d="M807,302v413.79c-38.78-5.37-65.28-15.81-65.98-27.86H741l-1.98-342.28v-0.28l-0.02-2.84
		c0-0.14,0.02-0.28,0.06-0.41h0.01c0.03-0.13,0.08-0.25,0.15-0.37l23.12-38.08l1.02-1.67H807z"/>
	<ellipse class="st3" cx="849" cy="284.5" rx="101" ry="16.5"/>
	<path class="st4" d="M843.79,291.71c-1.32-2.08-1.76-4.17-1.06-5.97c1.78-4.64,10.33-5.69,19.09-2.32c3.66,1.4,6.79,3.36,9.06,5.49
		"/>
	<ellipse class="st5" cx="853.5" cy="286.5" rx="4" ry="2"/>
	<ellipse class="st6" cx="849" cy="284.5" rx="101" ry="16.5"/>
	<path class="st3" d="M975.4,690.4c0,0.49-0.4,1.13-0.4,0.49l0.01-0.96C975.3,689.94,975.4,690.15,975.4,690.4z"/>
	<g class="st7">
		<path class="st8" d="M975,694.77c-3.52,16.97-60.46,27.86-127.5,27.86c-20.9,0-40.61-1.31-57.94-3.63H807v-2.21
			c-38.78-5.37-65.28-15.81-65.98-27.86H741l-1.98-342.28v-0.28l-0.02-2.84c0-0.14,0.02-0.28,0.06-0.41h0.01
			c0.03-0.13,0.08-0.25,0.15-0.37l22.58-37.19c17.53,4.69,50.01,7.85,87.2,7.85c24.9,0,47.69-1.41,65.3-3.76
			c19.53-2.6,32.68-6.34,35.24-10.57c0.38,0.12,0.72,0.36,0.93,0.7l27.31,44.97c0.14,0.24,0.22,0.51,0.22,0.78l-2.99,345.4H975
			C974.22,690.92,975.15,694.03,975,694.77z"/>
		<path class="st8" d="M748.46,299.08c-0.38,0.12-0.72,0.36-0.93,0.7l-1.95,3.22h8.55C751.24,301.76,749.29,300.45,748.46,299.08z"
			/>
		<path class="st2" d="M807,716.79c-38.78-5.37-65.28-15.81-65.98-27.86H741l-1.98-342.28v-0.28l-0.02-2.84
			c0-0.14,0.02-0.28,0.06-0.41h0.01c0.03-0.13,0.08-0.25,0.15-0.37l22.58-37.19c-3.02-0.81-5.59-1.66-7.67-2.56h-8.55l-25.36,41.75
			c-0.14,0.24-0.22,0.51-0.22,0.79l2,345.4h0.02c0.7,12.21,27.92,22.77,67.54,28.07H807V716.79z"/>
	</g>
	<path class="st6" d="M936.78,719.17c0.15,0.47,0.22,0.95,0.22,1.43c0,11.27-39.18,20.4-87.5,20.4s-87.5-9.13-87.5-20.4
		c0-0.88,0.24-1.75,0.7-2.6"/>
	<path class="st9" d="M843.79,291.71c-1.32-2.08-1.76-4.17-1.06-5.97c1.78-4.64,10.33-5.69,19.09-2.32c3.66,1.4,6.79,3.36,9.06,5.49
		"/>
	<ellipse class="st5" cx="853.5" cy="286.5" rx="4" ry="2"/>
	<polyline class="st9" points="748,287 748,298.3 798,313 858,315 919,309 950,298 950,287 917,299 857,304 793,300 748,287 	"/>
	<path class="st0" d="M974,342.53c0-0.27-0.08-0.54-0.22-0.78l-23.12-38.08c-9.35,2.09-21.82,3.8-36.36,4.98
		c-17.61,2.35-40.4,3.76-65.3,3.76c-37.19,0-69.67-3.16-87.2-7.85l-22.58,37.19c-0.07,0.12-0.12,0.24-0.15,0.37h-0.01
		c-0.04,0.13-0.06,0.27-0.06,0.41l0.02,2.84v0.28L741,687.93h0.02c0.7,12.05,27.2,22.49,65.98,27.86
		c14.66,2.03,31.07,3.33,48.51,3.72c23.27-0.46,44.93-2.25,63.08-5.16c29.98-4.8,50.35-12.64,52.41-22.58
		c0.15-0.74-0.78-3.85,0-3.84h0.01l2.96-341.6c-12.39,2.65-29.55,5.47-49.58,7.32c-3,0.28-6.06,0.53-9.17,0.76l58.77-10.83
		L974,342.53z M739.41,342.17l50.83,7.2C762.94,346.09,742.54,342.68,739.41,342.17z M809.43,351.52l59.07,4.04
		C848.71,355.04,828.17,353.44,809.43,351.52z"/>
	<path class="st10" d="M973.99,343.58l-58.77,10.83c3.11-0.23,6.17-0.48,9.17-0.76c20.03-1.85,37.19-4.67,49.58-7.32l-2.96,341.6
		H971c-0.78-0.01,0.15,3.1,0,3.84c-2.06,9.94-22.43,17.78-52.41,22.58L915,354l-18.78-38.76l-0.05-5.46
		c22.32-1.01,41.45-3.2,54.49-6.11l23.12,38.08c0.14,0.24,0.22,0.51,0.22,0.78L973.99,343.58z"/>
	<path class="st11" d="M959.99,344.58l-58.77,10.83c3.11-0.23,6.17-0.48,9.17-0.76c20.03-1.85,37.19-4.67,49.58-7.32l-2.96,341.6
		H957c-0.78-0.01,0.15,3.1,0,3.84c-2.06,9.94-22.43,17.78-52.41,22.58L901,355l-18.78-38.76l-0.05-5.46
		c22.32-1.01,41.45-3.2,54.49-6.11l23.12,38.08c0.14,0.24,0.22,0.51,0.22,0.78L959.99,344.58z"/>
	<ellipse class="st12" cx="945" cy="618.5" rx="9" ry="53.5"/>
	<g class="st13">
		<path class="st14" d="M941.8,494.84c0.03,2.22-0.04,4.44-0.2,6.66c-1.24,17.1-6.84,32.65-16.99,46.49
			c-11.3,15.4-26.05,26.19-44.06,32.52c-6.39,2.24-12.96,3.69-19.69,4.48c-4.69,0.54-9.38,0.76-14.08,0.57
			c-13.95-0.54-27.22-3.87-39.57-10.44c-17.1-9.09-30.02-21.86-38.59-38.4c-1.97-3.79-3.71-7.78-5.21-11.97
			c-2.08-5.79-3.54-11.75-4.15-17.89c-0.35-3.58-0.62-7.17-0.87-10.06c0.52-28.63,11.22-51.78,32.54-69.88
			c11.81-10.02,25.47-16.39,40.63-19.51c4.66-0.95,9.38-1.47,14.14-1.74c4.78-0.28,9.53-0.09,14.26,0.4
			c9.1,0.95,17.9,3.14,26.32,6.77c20.37,8.79,35.76,22.97,45.94,42.71c0.97,1.89,1.87,3.8,2.69,5.73
			c2.86,6.72,4.81,13.74,5.89,21.05c0.48,3.27,0.8,6.55,0.94,9.83C941.77,493.07,941.8,493.96,941.8,494.84z"/>
		<path class="st15" d="M938.01,497.46c-2.33,0.01-3.96-1.59-3.97-3.88c0-2.2,1.77-3.93,4.01-3.9c1.72,0.02,3.13,1.04,3.69,2.51
			c-0.14-3.28-0.46-6.56-0.94-9.83c-1.07-7.3-3.03-14.33-5.89-21.05c-10.17-19.5-25.48-33.54-45.69-42.25
			c-8.41-3.63-17.22-5.83-26.32-6.77c-4.73-0.49-9.49-0.67-14.26-0.4c-4.76,0.28-9.48,0.79-14.14,1.74
			c-15.17,3.11-28.82,9.48-40.63,19.51c-21.31,18.09-32.01,41.24-32.54,69.88c0.25,2.89,0.52,6.48,0.87,10.06
			c0.61,6.13,2.07,12.1,4.15,17.89c0.71,1.97,1.47,3.89,2.28,5.77c8.57,16.53,21.49,29.3,38.59,38.4
			c12.35,6.57,25.62,9.9,39.57,10.44c4.69,0.18,9.39-0.03,14.08-0.57c6.73-0.78,13.31-2.23,19.69-4.48
			c18.01-6.33,32.76-17.12,44.06-32.52c10.15-13.84,15.75-29.38,16.99-46.49c0.16-2.22,0.23-4.44,0.2-6.66
			C941.31,496.41,939.86,497.46,938.01,497.46z M934.32,500.31c-0.62,2.76-3.34,4.42-6.22,3.89c-3.42-0.63-5.09-1.35-8.39-3.63
			c-2.15,3.05-5.14,4.35-8.83,3.9c-3.51-0.44-6.49-1.94-8.74-4.8c-0.69,1.35-1.24,2.7-2.04,3.88c-1.15,1.73-2.34,3.49-3.77,4.99
			c-2.28,2.39-4.03,2.63-7.07,1.37c-0.27,0.89-0.5,1.79-0.81,2.66c-1.87,5.2-5.15,8.91-10.75,10.22c-4.82,1.13-8.69-0.42-11.36-4.61
			c-0.07-0.1-0.15-0.2-0.36-0.47c-0.82,3.62-2.57,6.38-5.82,7.94c-3.11,1.5-6.34,1.77-9.64,0.36c0,0.57,0.01,1.01,0.01,1.45
			c-0.01,2.71-2,4.85-4.78,5.14c-2.82,0.3-5.56-0.25-8.3-0.83c-0.37-0.08-0.73-0.18-1.19-0.29c0.06,1.13,0.17,2.17,0.18,3.21
			c0.04,4.59-2.22,8-5.73,10.62c-6.52,4.86-15.65,3.71-21.18-2.53c-0.19-0.22-0.38-0.44-0.76-0.89c0.05,0.86,0.07,1.47,0.12,2.08
			c0.23,3.13,0.24,6.24-0.65,9.29c-1.51,5.16-5.86,7.28-10.88,5.34c-3.45-1.33-6.3-3.6-9.06-5.98
			c-7.81-6.74-13.16-15.18-16.83-24.74c-2.49-6.48-4.2-13.16-4.77-20.09c-0.29-3.56-0.46-7.13-0.41-10.7
			c0.07-4.75,2.08-8.8,4.97-12.5c3.6-4.59,8.16-7.99,13.07-11.04c3.84-2.38,7.87-4.23,12.32-5.09c3.31-0.64,6.63-0.85,9.94,0.05
			c4.88,1.33,8.05,6.23,7.11,11.21c-0.35,1.84-0.99,3.62-1.47,5.33c9.52-5.2,18.48-3.98,26.8,3.04c-0.03-0.19-0.09-0.48-0.13-0.78
			c-0.77-4.85,3.89-7.52,7.55-6.36c1.51,0.48,1.53,0.43,2.46-0.86c3.22-4.46,7.62-6.78,13.05-7.28c1.06-0.1,2.12-0.17,3.18-0.17
			c0.56,0,0.83-0.2,0.91-0.74c0.44-3.14,2.54-4.68,5.36-5.5c0.67-0.19,1.36-0.33,2.03-0.49c-0.32-1.68-0.71-3.26-0.91-4.87
			c-0.63-5.04,2.36-10.24,7.97-10.89c2.04-0.24,3.95,0.39,5.76,1.27c2.55,1.25,4.71,3.03,6.59,5.14c0.73,0.82,1.35,1.09,2.47,0.73
			c2.25-0.71,4.6-1.08,6.94-0.45c3.9,1.05,6.09,3.74,7.01,7.58c0.03,0.12,0.05,0.25,0.07,0.37c1.48-0.48,2.91-1.06,4.4-1.41
			c5.75-1.32,11.08-0.38,15.71,3.4c3.16,2.58,4.71,6.12,5.43,10.06c0.83,4.51,0.14,8.89-1.13,13.22c-0.28,0.95-0.58,1.93-0.63,2.91
			c-0.04,0.82,0.1,1.74,0.44,2.49C934.27,497.03,934.69,498.62,934.32,500.31z"/>
		<path class="st16" d="M863.05,510.28c-0.82,3.62-2.57,6.38-5.82,7.94c-3.11,1.5-6.34,1.77-9.65,0.36c0,0.57,0.01,1.01,0.01,1.45
			c-0.01,2.71-1.99,4.85-4.78,5.14c-2.82,0.3-5.56-0.25-8.3-0.83c-0.37-0.08-0.73-0.18-1.19-0.28c0.06,1.13,0.17,2.17,0.18,3.21
			c0.05,4.59-2.22,8-5.73,10.62c-6.52,4.85-15.66,3.71-21.18-2.53c-0.19-0.22-0.37-0.44-0.76-0.89c0.05,0.86,0.07,1.47,0.11,2.08
			c0.23,3.13,0.24,6.25-0.65,9.29c-1.51,5.16-5.86,7.29-10.88,5.34c-3.45-1.34-6.31-3.6-9.06-5.98
			c-7.81-6.74-13.16-15.18-16.83-24.74c-2.49-6.48-4.2-13.16-4.77-20.09c-0.29-3.55-0.46-7.13-0.41-10.7
			c0.07-4.75,2.08-8.8,4.97-12.5c3.6-4.6,8.16-7.99,13.06-11.04c3.84-2.39,7.87-4.23,12.32-5.09c3.31-0.65,6.63-0.85,9.94,0.05
			c4.88,1.32,8.05,6.23,7.11,11.21c-0.35,1.84-0.99,3.62-1.47,5.33c9.52-5.2,18.47-3.98,26.8,3.04c-0.03-0.19-0.09-0.49-0.14-0.78
			c-0.77-4.85,3.89-7.52,7.55-6.36c1.51,0.48,1.53,0.43,2.46-0.86c3.22-4.46,7.63-6.78,13.05-7.28c1.06-0.1,2.12-0.17,3.17-0.17
			c0.56,0,0.83-0.19,0.91-0.74c0.44-3.14,2.54-4.68,5.36-5.5c0.67-0.2,1.36-0.33,2.02-0.49c-0.32-1.67-0.71-3.26-0.91-4.87
			c-0.63-5.04,2.36-10.24,7.97-10.89c2.05-0.24,3.95,0.38,5.77,1.27c2.55,1.25,4.71,3.03,6.59,5.14c0.73,0.82,1.35,1.09,2.47,0.73
			c2.25-0.71,4.6-1.08,6.94-0.45c3.9,1.05,6.09,3.74,7.01,7.58c0.03,0.12,0.05,0.25,0.07,0.37c1.48-0.48,2.91-1.07,4.4-1.41
			c5.75-1.32,11.08-0.39,15.71,3.4c3.16,2.58,4.71,6.11,5.44,10.06c0.83,4.51,0.14,8.89-1.13,13.22c-0.28,0.95-0.58,1.93-0.63,2.91
			c-0.04,0.83,0.1,1.75,0.44,2.49c0.73,1.57,1.15,3.17,0.77,4.86c-0.62,2.76-3.34,4.42-6.22,3.89c-3.42-0.63-5.08-1.35-8.39-3.63
			c-2.16,3.05-5.14,4.35-8.83,3.9c-3.51-0.43-6.49-1.94-8.74-4.8c-0.69,1.35-1.24,2.7-2.04,3.89c-1.15,1.73-2.34,3.49-3.77,4.99
			c-2.28,2.39-4.03,2.63-7.07,1.37c-0.27,0.89-0.5,1.79-0.81,2.66c-1.87,5.2-5.15,8.91-10.75,10.22c-4.82,1.13-8.69-0.42-11.36-4.61
			C863.34,510.65,863.26,510.55,863.05,510.28z M787.97,493.54c0.32-0.24,0.57-0.43,0.83-0.62c4.94-3.59,9.63-7.46,13.55-12.17
			c1.95-2.34,3.65-4.83,4.45-7.83c1.19-4.46-1.14-8.01-5.73-8.45c-1.87-0.18-3.8-0.1-5.66,0.15c-4,0.55-7.68,2.05-11.12,4.16
			c-4.55,2.78-8.89,5.78-12.37,9.92c-3.33,3.95-4.99,8.35-4.89,13.55c0.15,7.62,1.22,15.07,3.51,22.33
			c3.19,10.14,8.15,19.24,16,26.58c2.57,2.4,5.27,4.67,8.49,6.16c3.82,1.77,6.24,0.43,6.92-3.72c0.62-3.73,0.25-7.46-0.17-11.17
			c-0.7-6.2-2.28-12.19-4.39-18.05c-0.21-0.59-0.03-0.89,0.37-1.32c2.02-2.16,4.14-4.26,5.91-6.61c1.19-1.58,2.09-3.48,2.72-5.38
			c0.79-2.37-0.72-4.22-3.22-4.34c-0.7-0.03-1.42,0.02-2.11,0.13c-2.38,0.39-4.53,1.43-6.62,2.57c-0.87,0.48-1.72,0.98-2.66,1.51
			C790.51,498.48,789.26,496.05,787.97,493.54z M804.52,519.29c0.13,5.02,1.44,9.37,4.51,13.05c3.21,3.83,7.33,5.52,12.31,4.42
			c5.24-1.15,8.68-5.61,8.34-10.63c-0.19-2.79-1.54-4.88-4.24-5.76c-1.72-0.56-3.56-0.77-5.36-1.1c-0.79-0.14-1.61-0.1-2.4-0.26
			c-3.47-0.72-5.03-3.41-4.26-7.18c0.45-2.2,1.69-3.65,3.85-4.26c2.13-0.6,3.97,0.01,5.43,1.6c0.73,0.8,1.24,1.79,1.88,2.67
			c1.12,1.56,2.1,3.27,3.43,4.64c3.86,3.99,8.87,4.97,14.17,4.93c1.41-0.01,1.95-0.93,1.46-2.25c-0.22-0.6-0.6-1.13-0.9-1.7
			c-0.57-1.08-1.23-2.12-1.68-3.24c-1.12-2.78-1.49-5.71-1.63-8.68c-0.23-4.99-0.68-9.96-2.2-14.76c-1.34-4.23-3.47-7.86-7.53-10.1
			c-7.96-4.4-17.68-2.6-23.08,4.36c-0.96,1.23-1.74,2.56-1.97,4.14c-0.26,1.78,0.84,2.91,2.61,2.61c0.79-0.13,1.55-0.41,2.32-0.64
			c2.93-0.89,5.47-0.08,6.97,2.59c0.87,1.54,1.31,3.32,1.88,5.02c0.07,0.21-0.23,0.67-0.47,0.83c-1.24,0.81-2.57,1.48-3.77,2.34
			C808.1,506.22,804.63,511.98,804.52,519.29z M846.35,479.56c-0.11-0.09-0.34-0.32-0.6-0.48c-0.97-0.62-1.92-1.3-2.95-1.79
			c-0.87-0.41-1.84-0.4-2.61,0.35c-0.75,0.74-0.65,1.67-0.32,2.52c0.4,1.01,0.97,1.96,1.4,2.96c0.43,1,0.93,2,1.12,3.05
			c0.29,1.61,0.37,3.26,0.46,4.9c0.24,4.4,0.32,8.82,0.71,13.21c0.26,2.95,1.1,5.82,2.82,8.33c1.6,2.32,3.76,3.43,6.63,2.99
			c2.93-0.45,5.03-1.94,5.94-4.81c0.33-1.03,0.51-2.14,0.55-3.22c0.14-3.59-0.87-6.92-2.43-10.12c-1.55-3.18-3.15-6.34-3.92-9.83
			c-0.68-3.09-0.59-6.08,1.24-8.82c0.95-1.41,2.2-2.43,3.92-2.74c3.1-0.56,6.57,1.27,7.69,4.35c0.7,1.91,1.14,3.96,1.34,5.98
			c0.36,3.78-0.29,7.51-1.15,11.19c-0.69,2.94-1.13,5.87-0.44,8.88c0.92,4.02,3.65,5.96,7.71,5.29c4.02-0.67,6.6-3.16,8.1-6.83
			c1.93-4.74,2.04-9.69,1.16-14.63c-1.04-5.86-3.85-10.9-7.96-15.17c-4.22-4.38-9.3-6.69-15.52-5.99c-4.02,0.45-7.47,2.01-9.88,5.35
			C848.22,476.05,847.37,477.82,846.35,479.56z M875.53,460.92c-1.83,0.52-3.75,1.01-5.64,1.62c-0.86,0.28-1.75,0.66-2.45,1.21
			c-0.87,0.69-0.84,1.67-0.05,2.45c0.52,0.51,1.15,0.93,1.79,1.29c3.35,1.87,6.98,2.78,10.78,3.01c0.67,0.04,1.07,0.26,1.38,0.82
			c0.64,1.12,1.36,2.19,1.97,3.32c3.16,5.97,5.21,12.25,5,19.1c-0.04,1.16-0.21,2.32-0.14,3.47c0.04,0.75,0.42,1.47,0.64,2.21
			c0.68-0.36,1.49-0.58,2.02-1.09c2.12-2.01,3.48-4.53,4.59-7.19c3.2-7.62,3.07-15.35,0.59-23.12c-0.26-0.81-0.2-1.23,0.59-1.67
			c2.2-1.24,3.91-3,5.19-5.2c2.36-4.03-1.05-8.54-5.09-8.23c-0.74,0.06-1.49,0.11-2.19,0.3c-1.67,0.45-3.32,0.97-5.05,1.49
			c-0.15-0.2-0.35-0.44-0.53-0.71c-1.38-2.14-3.17-3.91-5.26-5.33c-1.18-0.8-2.49-1.52-3.85-1.94c-2.69-0.84-5.1,0.48-6.11,3.13
			c-0.57,1.5-0.58,3.07-0.2,4.57C874.05,456.53,874.8,458.59,875.53,460.92z M913.26,472.17c-0.83,0-1.66-0.06-2.48,0.03
			c-8.27,0.85-12.87,9.28-9.12,16.69c1.56,3.08,5.47,4.98,8.84,4.29c2.01-0.41,3.36-1.89,3.78-4.15c0.31-1.66-0.46-3.2-2.23-4.23
			c-0.77-0.45-1.63-0.76-2.45-1.12c-1.48-0.66-2.15-1.61-2.11-3.02c0.04-1.49,1-2.91,2.3-3.4c1.47-0.55,2.9-0.27,3.86,0.9
			c0.52,0.64,0.99,1.37,1.26,2.14c0.49,1.39,0.85,2.83,1.19,4.27c1.29,5.45,5.15,7.78,9.83,8.46c1.27,0.19,1.96-0.57,1.76-1.85
			c-0.08-0.52-0.4-1.01-0.55-1.53c-0.3-1.1-0.83-2.23-0.77-3.32c0.11-1.84,0.49-3.7,0.98-5.48c1-3.59,1.43-7.2,0.8-10.88
			c-0.65-3.78-2.36-6.93-5.78-8.94c-5.15-3.03-12.82-2.23-17.23,1.82c-0.56,0.51-1.05,1.14-1.44,1.8c-0.84,1.43-0.3,2.37,1.36,2.45
			c1.06,0.05,2.13-0.05,3.19-0.02C911.14,467.18,913.45,469.56,913.26,472.17z"/>
		<path class="st16" d="M935.07,490.03c-2.33,0.01-3.96-1.59-3.97-3.88c-0.01-2.2,1.77-3.93,4.01-3.9c2.22,0.03,3.93,1.72,3.95,3.89
			C939.07,488.37,937.39,490.02,935.07,490.03z M936.99,488.2c0.16-0.19,0.36-0.37,0.48-0.59c0.75-1.36,0.33-3.11-0.92-3.91
			c-1.23-0.79-2.81-0.51-3.69,0.66c-0.94,1.24-0.77,2.97,0.38,3.99c1.15,1.02,2.65,0.94,3.77-0.18L936.99,488.2z"/>
		<path class="st17" d="M787.97,493.54c1.29,2.52,2.53,4.94,3.8,7.42c0.93-0.53,1.79-1.03,2.66-1.51c2.09-1.15,4.24-2.18,6.62-2.57
			c0.69-0.11,1.41-0.17,2.11-0.13c2.5,0.12,4.01,1.97,3.22,4.34c-0.63,1.89-1.53,3.79-2.72,5.38c-1.77,2.35-3.89,4.45-5.91,6.61
			c-0.4,0.42-0.58,0.73-0.37,1.32c2.11,5.86,3.69,11.85,4.39,18.05c0.42,3.71,0.78,7.44,0.17,11.17c-0.69,4.15-3.11,5.49-6.92,3.72
			c-3.22-1.49-5.92-3.76-8.49-6.16c-7.86-7.33-12.81-16.44-16-26.58c-2.29-7.26-3.36-14.71-3.51-22.33c-0.1-5.2,1.56-9.6,4.89-13.55
			c3.49-4.14,7.82-7.14,12.37-9.92c3.45-2.11,7.12-3.62,11.12-4.16c1.86-0.26,3.8-0.33,5.66-0.15c4.58,0.44,6.91,3.99,5.73,8.45
			c-0.8,3-2.5,5.49-4.45,7.83c-3.93,4.71-8.61,8.58-13.55,12.17C788.55,493.11,788.3,493.3,787.97,493.54z"/>
		<path class="st17" d="M804.52,519.29c0.11-7.31,3.58-13.07,9.65-17.38c1.2-0.85,2.53-1.53,3.77-2.34
			c0.25-0.16,0.54-0.62,0.47-0.83c-0.57-1.7-1.01-3.48-1.88-5.02c-1.5-2.66-4.04-3.48-6.97-2.59c-0.77,0.23-1.53,0.51-2.32,0.64
			c-1.77,0.29-2.87-0.83-2.61-2.61c0.23-1.58,1.02-2.9,1.97-4.14c5.4-6.95,15.12-8.76,23.08-4.36c4.06,2.25,6.19,5.87,7.53,10.1
			c1.52,4.8,1.98,9.76,2.2,14.76c0.13,2.98,0.51,5.91,1.63,8.68c0.45,1.12,1.11,2.17,1.68,3.24c0.3,0.57,0.68,1.1,0.9,1.7
			c0.49,1.32-0.05,2.24-1.46,2.25c-5.3,0.05-10.3-0.94-14.17-4.93c-1.33-1.37-2.31-3.08-3.43-4.64c-0.64-0.89-1.15-1.88-1.88-2.67
			c-1.46-1.59-3.3-2.2-5.43-1.6c-2.16,0.61-3.4,2.06-3.85,4.26c-0.77,3.77,0.79,6.46,4.26,7.18c0.78,0.16,1.61,0.12,2.4,0.26
			c1.8,0.32,3.64,0.54,5.36,1.1c2.7,0.88,4.05,2.97,4.24,5.76c0.34,5.02-3.1,9.48-8.34,10.63c-4.98,1.1-9.1-0.59-12.31-4.42
			C805.96,528.67,804.65,524.31,804.52,519.29z"/>
		<path class="st17" d="M846.35,479.56c1.01-1.73,1.87-3.5,3.01-5.07c2.41-3.34,5.86-4.9,9.88-5.35c6.22-0.7,11.3,1.61,15.52,5.99
			c4.11,4.27,6.91,9.31,7.96,15.17c0.88,4.94,0.78,9.89-1.16,14.63c-1.5,3.66-4.07,6.16-8.1,6.83c-4.06,0.67-6.78-1.27-7.71-5.29
			c-0.69-3.01-0.25-5.94,0.44-8.88c0.86-3.68,1.51-7.41,1.15-11.19c-0.19-2.02-0.64-4.08-1.34-5.98c-1.13-3.09-4.6-4.91-7.69-4.35
			c-1.73,0.31-2.98,1.33-3.92,2.74c-1.83,2.73-1.92,5.73-1.24,8.82c0.77,3.49,2.37,6.65,3.92,9.83c1.56,3.2,2.57,6.53,2.43,10.12
			c-0.04,1.08-0.23,2.19-0.55,3.22c-0.92,2.87-3.01,4.36-5.94,4.81c-2.87,0.44-5.03-0.68-6.63-2.99c-1.72-2.5-2.56-5.37-2.82-8.33
			c-0.39-4.39-0.46-8.8-0.71-13.21c-0.09-1.64-0.18-3.29-0.46-4.9c-0.19-1.05-0.69-2.05-1.12-3.05c-0.43-1-1-1.94-1.4-2.96
			c-0.34-0.86-0.44-1.78,0.32-2.52c0.77-0.75,1.74-0.76,2.61-0.35c1.04,0.49,1.98,1.18,2.95,1.79
			C846.02,479.24,846.24,479.46,846.35,479.56z"/>
		<path class="st17" d="M875.53,460.92c-0.73-2.33-1.48-4.39-2.01-6.5c-0.38-1.5-0.37-3.07,0.2-4.57c1.01-2.65,3.42-3.97,6.11-3.13
			c1.36,0.43,2.66,1.14,3.85,1.94c2.09,1.42,3.88,3.18,5.26,5.33c0.17,0.27,0.38,0.51,0.53,0.71c1.73-0.52,3.38-1.04,5.05-1.49
			c0.71-0.19,1.46-0.25,2.19-0.3c4.03-0.31,7.45,4.2,5.09,8.23c-1.28,2.19-2.99,3.95-5.19,5.2c-0.79,0.44-0.85,0.86-0.59,1.67
			c2.47,7.77,2.6,15.5-0.59,23.12c-1.11,2.66-2.48,5.18-4.59,7.19c-0.54,0.51-1.34,0.73-2.02,1.09c-0.23-0.74-0.6-1.46-0.64-2.21
			c-0.07-1.15,0.11-2.31,0.14-3.47c0.21-6.86-1.83-13.13-5-19.1c-0.6-1.14-1.33-2.2-1.97-3.32c-0.32-0.56-0.72-0.78-1.38-0.82
			c-3.8-0.23-7.43-1.14-10.78-3.01c-0.64-0.36-1.27-0.78-1.79-1.29c-0.79-0.77-0.82-1.76,0.05-2.45c0.7-0.56,1.59-0.93,2.45-1.21
			C871.78,461.93,873.7,461.44,875.53,460.92z"/>
		<path class="st17" d="M913.26,472.17c0.18-2.61-2.12-4.99-5.01-5.09c-1.06-0.03-2.13,0.06-3.19,0.02
			c-1.67-0.07-2.2-1.01-1.36-2.45c0.38-0.66,0.88-1.29,1.44-1.8c4.42-4.06,12.08-4.86,17.23-1.82c3.42,2.01,5.12,5.15,5.78,8.94
			c0.64,3.68,0.21,7.29-0.8,10.88c-0.5,1.78-0.87,3.64-0.98,5.48c-0.07,1.09,0.46,2.22,0.77,3.32c0.14,0.52,0.46,1,0.55,1.53
			c0.2,1.28-0.5,2.04-1.76,1.85c-4.68-0.69-8.54-3.01-9.83-8.46c-0.34-1.44-0.7-2.88-1.19-4.27c-0.27-0.77-0.74-1.51-1.26-2.14
			c-0.97-1.18-2.39-1.46-3.86-0.9c-1.3,0.49-2.26,1.91-2.3,3.4c-0.04,1.41,0.63,2.36,2.11,3.02c0.82,0.36,1.68,0.67,2.45,1.12
			c1.77,1.04,2.54,2.57,2.23,4.23c-0.42,2.25-1.77,3.74-3.78,4.15c-3.37,0.68-7.28-1.22-8.84-4.29c-3.75-7.41,0.86-15.84,9.12-16.69
			C911.6,472.11,912.43,472.17,913.26,472.17z"/>
		<path d="M937.02,488.17c-1.12,1.13-2.62,1.2-3.77,0.18c-1.15-1.02-1.32-2.75-0.38-3.99c0.88-1.17,2.45-1.45,3.69-0.66
			c1.25,0.8,1.67,2.55,0.92,3.91c-0.12,0.22-0.32,0.39-0.48,0.59c-0.17-0.55-0.35-1.09-0.49-1.64c-0.04-0.16-0.08-0.4,0.01-0.51
			c0.52-0.68,0.48-1.45-0.27-1.66c-0.82-0.24-1.78-0.04-2.67,0.02c-0.06,0-0.12,0.4-0.12,0.62c-0.01,0.8-0.05,1.61,0.03,2.4
			c0.03,0.29,0.35,0.55,0.54,0.82c0.18-0.27,0.37-0.53,0.54-0.8c0.13-0.22,0.22-0.46,0.33-0.69c0.23,0.18,0.6,0.33,0.66,0.56
			C935.74,488.18,936.22,488.41,937.02,488.17z"/>
		<path class="st16" d="M937.02,488.17c-0.79,0.24-1.28,0.01-1.48-0.85c-0.05-0.22-0.43-0.37-0.66-0.56
			c-0.11,0.23-0.2,0.47-0.33,0.69c-0.16,0.28-0.36,0.53-0.54,0.8c-0.19-0.27-0.51-0.53-0.54-0.82c-0.08-0.79-0.04-1.6-0.03-2.4
			c0-0.22,0.07-0.62,0.12-0.62c0.89-0.05,1.85-0.25,2.67-0.02c0.75,0.21,0.79,0.98,0.27,1.66c-0.08,0.11-0.05,0.35-0.01,0.51
			c0.15,0.55,0.33,1.09,0.49,1.64C936.99,488.2,937.02,488.17,937.02,488.17z"/>
	</g>
	<ellipse class="st18" cx="767" cy="486" rx="14" ry="99"/>
</g>
<g id="Outline">
	<ellipse class="st3" cx="849" cy="284.5" rx="101" ry="16.5"/>
	<path class="st3" d="M950,284v12.5c0,0.53-0.15,1.06-0.46,1.58"/>
	<path class="st3" d="M748,284v12.5c0,0.53,0.15,1.06,0.46,1.58"/>
	<g>
		<path d="M856.64,277.51c12.63-0.21,25.26-0.01,37.89,0.51c6.32,0.31,12.63,0.74,18.95,1.43c3.16,0.36,6.32,0.77,9.51,1.46
			c0.8,0.18,1.6,0.37,2.42,0.63c0.83,0.29,1.63,0.5,2.65,1.26c0.25,0.2,0.57,0.48,0.82,1.02c0.13,0.26,0.21,0.62,0.21,0.98
			c-0.01,0.18-0.03,0.36-0.07,0.53c-0.04,0.16-0.1,0.29-0.17,0.43c-0.27,0.51-0.57,0.78-0.82,0.99c-0.26,0.21-0.49,0.35-0.72,0.48
			c-0.9,0.49-1.71,0.75-2.52,1c-3.22,0.94-6.36,1.42-9.52,1.9c-3.16,0.45-6.32,0.79-9.47,1.09c-6.32,0.6-12.63,1.02-18.95,1.36
			c-12.64,0.64-25.28,0.89-37.92,0.93c-12.64-0.03-25.29-0.26-37.93-0.9c-6.32-0.33-12.64-0.75-18.95-1.35
			c-3.16-0.3-6.32-0.64-9.48-1.09c-3.17-0.48-6.31-0.96-9.54-1.92c-0.82-0.26-1.63-0.53-2.56-1.06c-0.24-0.14-0.48-0.31-0.76-0.56
			c-0.26-0.24-0.62-0.63-0.81-1.29c-0.09-0.36-0.1-0.73-0.02-1.1c0.08-0.33,0.23-0.65,0.37-0.84c0.31-0.44,0.58-0.63,0.84-0.84
			c1-0.66,1.8-0.89,2.63-1.17c0.82-0.25,1.62-0.45,2.42-0.62c3.19-0.68,6.35-1.09,9.51-1.45c6.32-0.7,12.64-1.13,18.95-1.44
			c12.64-0.53,25.27-0.74,37.9-0.54c0.38,0.01,0.68,0.32,0.68,0.7c-0.01,0.37-0.3,0.66-0.67,0.68c-12.6,0.42-25.2,0.89-37.75,1.87
			c-6.27,0.46-12.54,0.99-18.75,1.8c-3.09,0.41-6.19,0.88-9.16,1.58c-0.74,0.18-1.46,0.37-2.15,0.6c-0.66,0.21-1.37,0.51-1.68,0.74
			c-0.04,0.04-0.09,0.09,0-0.01c0.07-0.07,0.22-0.48,0.12-0.82c-0.07-0.29-0.19-0.35-0.15-0.33c0.01,0.01,0.09,0.07,0.2,0.13
			c0.44,0.25,1.13,0.49,1.82,0.69c2.83,0.79,5.96,1.22,9.03,1.62c3.09,0.39,6.21,0.71,9.33,0.97c6.25,0.53,12.52,0.89,18.81,1.16
			c12.56,0.55,25.15,0.79,37.74,0.78c12.59,0.03,25.18-0.19,37.74-0.73c6.28-0.26,12.56-0.61,18.81-1.13
			c3.12-0.26,6.24-0.57,9.34-0.96c3.08-0.39,6.2-0.82,9.06-1.59c0.7-0.19,1.4-0.43,1.89-0.69c0.11-0.06,0.22-0.12,0.27-0.16
			c0.06-0.04,0.04-0.06-0.05,0.11c-0.1,0.13-0.12,0.65,0,0.81c0.09,0.18,0.13,0.16,0.07,0.12c-0.23-0.21-0.96-0.53-1.61-0.74
			c-0.68-0.23-1.41-0.43-2.14-0.61c-2.96-0.71-6.06-1.18-9.16-1.6c-6.21-0.82-12.48-1.36-18.75-1.83c-12.55-1-25.15-1.49-37.75-1.92
			c-0.29-0.01-0.51-0.25-0.5-0.54C856.14,277.74,856.37,277.51,856.64,277.51z"/>
	</g>
	<path class="st3" d="M975.4,690.4c0,0.49-0.4,1.13-0.4,0.49l0.01-0.96C975.3,689.94,975.4,690.15,975.4,690.4z"/>
	<path class="st3" d="M975,689.93h0.01l2.99-345.4c0-0.28-0.08-0.55-0.22-0.79l-27.31-44.97c-0.21-0.35-0.55-0.59-0.93-0.7
		c-4.86,8.04-48.02,14.33-100.54,14.33s-95.68-6.29-100.54-14.33c-0.38,0.12-0.72,0.36-0.93,0.7l-27.31,44.97
		c-0.14,0.24-0.22,0.51-0.22,0.79l2,345.4h0.02c1.01,17.55,56.79,31.7,125.48,31.7c67.04,0,123.98-10.89,127.5-27.86
		C975.15,693.03,974.22,689.92,975,689.93z M771.24,351.37c-30.12-3.62-51.84-7.41-51.24-7.26 M849.5,357.56
		c-19.79-0.52-40.33-2.12-59.07-4.05 M976,341.71c1.43,1.72-28.13,10.02-70.61,13.94c-2.99,0.28-6.05,0.53-9.17,0.76"/>
	<path class="st3" d="M934.78,713.92c0.15,0.5,0.22,1,0.22,1.51c0,11.91-39.18,21.57-87.5,21.57s-87.5-9.66-87.5-21.57
		c0-0.93,0.24-1.85,0.7-2.75"/>
	<path class="st4" d="M843.79,291.71c-1.32-2.08-1.76-4.17-1.06-5.97c1.78-4.64,10.33-5.69,19.09-2.32c3.66,1.4,6.79,3.36,9.06,5.49
		"/>
	<ellipse class="st5" cx="853.5" cy="286.5" rx="4" ry="2"/>
	<path class="st4" d="M826.5,290.5c1.02-1.21,3.29-3.55,7-5c3.96-1.55,7.43-1.24,9-1"/>
	<circle class="st19" cx="878.5" cy="231.5" r="8"/>
	<circle class="st19" cx="877" cy="262" r="4.5"/>
	<circle class="st19" cx="855" cy="251" r="5.5"/>
</g>
</svg>
