<?xml version="1.0" encoding="utf-8"?>
<!-- Generator: Adobe Illustrator 23.0.3, SVG Export Plug-In . SVG Version: 6.00 Build 0)  -->
<svg version="1.1" xmlns="http://www.w3.org/2000/svg" xmlns:xlink="http://www.w3.org/1999/xlink" x="0px" y="0px"
	 viewBox="0 0 1920 1080" style="enable-background:new 0 0 1920 1080;" xml:space="preserve">
<style type="text/css">
	.st0{fill:#234D53;}
	.st1{fill:#999999;}
	.st2{fill:none;stroke:#999999;stroke-width:12;stroke-linecap:round;stroke-miterlimit:10;}
	.st3{fill:#736357;stroke:#999999;stroke-miterlimit:10;}
	.st4{fill:#808080;}
	.st5{font-family:'TrebuchetMS';}
	.st6{font-size:72px;}
	.st7{fill:#736357;}
	.st8{letter-spacing:14;}
	.st9{fill:none;}
	.st10{fill:#736357;stroke:#736357;stroke-width:8;stroke-miterlimit:10;}
</style>
<g id="background">
</g>
<g id="Layer_1">
	<rect class="st0" width="1920" height="1080"/>
	<g>
		<g>
			<path class="st1" d="M947.56,394.83c35.82,0,69.49,13.95,94.81,39.27c25.33,25.33,39.27,59,39.27,94.81s-13.95,69.49-39.27,94.81
				c-25.33,25.33-59,39.27-94.81,39.27s-69.49-13.95-94.81-39.27s-39.27-59-39.27-94.81s13.95-69.49,39.27-94.81
				S911.74,394.83,947.56,394.83 M947.56,382.83c-80.68,0-146.08,65.4-146.08,146.08S866.88,675,947.56,675
				s146.08-65.4,146.08-146.08S1028.24,382.83,947.56,382.83L947.56,382.83z"/>
		</g>
		<g>
			<path class="st2" d="M746.5,441.65c50.23,47,92.2,60.15,122.25,62.92c20.15,1.86,56.78,1.06,71.89,24.17
				c4.96,7.58,6.24,15.64,6.53,21.32c0.13,6.28,0.26,12.56,0.38,18.84"/>
		</g>
		<g>
			<path class="st1" d="M887.2,526.22c-3.4,0-6.15,2.75-6.15,6.15c0,3.4,2.75,6.15,6.15,6.15c3.4,0,6.15-2.75,6.15-6.15
				C893.35,528.98,890.6,526.22,887.2,526.22L887.2,526.22z"/>
		</g>
		<g>
			<path class="st1" d="M1002.53,526.99c-3.4,0-6.15,2.75-6.15,6.15s2.75,6.15,6.15,6.15c3.4,0,6.15-2.75,6.15-6.15
				S1005.93,526.99,1002.53,526.99L1002.53,526.99z"/>
		</g>
		<g>
			<path class="st2" d="M1149,442.42c-50.23,47-92.2,60.15-122.25,62.92c-20.15,1.86-56.78,1.06-71.89,24.17
				c-4.96,7.58-6.24,15.64-6.53,21.32c-0.13,6.28-0.26,12.56-0.38,18.84"/>
		</g>
	</g>
	<g>
		<path class="st3" d="M1427.64,303.63H474.42c-6.53,0-11.82-5.29-11.82-11.82c0-6.53,5.29-11.82,11.82-11.82h953.22
			c6.53,0,11.82,5.29,11.82,11.82C1439.46,298.34,1434.17,303.63,1427.64,303.63z"/>
		<path class="st3" d="M740.72,538h-266.3c-6.53,0-11.82-5.29-11.82-11.82c0-6.53,5.29-11.82,11.82-11.82h266.3
			c6.53,0,11.82,5.29,11.82,11.82C752.54,532.71,747.25,538,740.72,538z"/>
		<path class="st3" d="M1428.06,538h-266.3c-6.53,0-11.82-5.29-11.82-11.82c0-6.53,5.29-11.82,11.82-11.82h266.3
			c6.53,0,11.82,5.29,11.82,11.82C1439.88,532.71,1434.59,538,1428.06,538z"/>
	</g>
	<text transform="matrix(1 0 0 1 767.5107 253.7871)" class="st4 st5 st6">SINCE 2016</text>
	<text transform="matrix(1 0 0 1 425.2979 489.6807)"><tspan x="0" y="0" class="st7 st5 st6 st8">		</tspan><tspan x="72" y="0" class="st7 st5 st6">  OWL</tspan></text>
	<text transform="matrix(1 0 0 1 1208.7021 488.8296)" class="st7 st5 st6">CAFE</text>
	<polygon class="st9" points="1298.7,432.91 1284.91,432.91 1284.91,432.91 1298.7,432.91 	"/>
	<line class="st10" x1="1356" y1="428" x2="1368" y2="416"/>
</g>
</svg>
