<?xml version="1.0" encoding="utf-8"?>
<!-- Generator: Adobe Illustrator 23.0.3, SVG Export Plug-In . SVG Version: 6.00 Build 0)  -->
<svg version="1.1" xmlns="http://www.w3.org/2000/svg" xmlns:xlink="http://www.w3.org/1999/xlink" x="0px" y="0px"
	 viewBox="0 0 1920 1080" style="enable-background:new 0 0 1920 1080;" xml:space="preserve">
<style type="text/css">
	.st0{fill:#333333;stroke:#000000;stroke-miterlimit:10;}
	.st1{fill:#FFFFFF;stroke:#000000;stroke-miterlimit:10;}
	.st2{fill:url(#SVGID_1_);stroke:#000000;stroke-miterlimit:10;}
	.st3{fill:url(#SVGID_2_);stroke:#000000;stroke-miterlimit:10;}
	.st4{fill:url(#SVGID_3_);stroke:#000000;stroke-miterlimit:10;}
	.st5{fill:url(#SVGID_4_);stroke:#000000;stroke-miterlimit:10;}
	.st6{fill:url(#SVGID_5_);stroke:#000000;stroke-miterlimit:10;}
	.st7{fill:url(#SVGID_6_);stroke:#000000;stroke-miterlimit:10;}
	.st8{fill:url(#SVGID_7_);stroke:#000000;stroke-miterlimit:10;}
	.st9{fill:url(#SVGID_8_);stroke:#000000;stroke-miterlimit:10;}
	.st10{fill:url(#SVGID_9_);stroke:#000000;stroke-miterlimit:10;}
</style>
<g id="bg">
	<rect x="-0.5" y="-0.5" class="st0" width="1920" height="1080"/>
</g>
<g id="Layer_1">
	<path class="st1" d="M1059,173"/>
	<path class="st1" d="M1059,173"/>
	<g>
		<linearGradient id="SVGID_1_" gradientUnits="userSpaceOnUse" x1="990.7115" y1="417.2343" x2="990.7115" y2="417.2343">
			<stop  offset="0" style="stop-color:#FF7BAC"/>
			<stop  offset="1" style="stop-color:#FF7BAC;stop-opacity:0"/>
		</linearGradient>
		<path class="st2" d="M990.71,417.23"/>
		<linearGradient id="SVGID_2_" gradientUnits="userSpaceOnUse" x1="1042.1794" y1="349.1639" x2="1042.1794" y2="349.1639">
			<stop  offset="0" style="stop-color:#FF7BAC"/>
			<stop  offset="1" style="stop-color:#FF7BAC;stop-opacity:0"/>
		</linearGradient>
		<path class="st3" d="M1042.18,349.16"/>
		<linearGradient id="SVGID_3_" gradientUnits="userSpaceOnUse" x1="985.7307" y1="417.2343" x2="985.7307" y2="417.2343">
			<stop  offset="0" style="stop-color:#FF7BAC"/>
			<stop  offset="1" style="stop-color:#FF7BAC;stop-opacity:0"/>
		</linearGradient>
		<path class="st4" d="M985.73,417.23"/>
		<linearGradient id="SVGID_4_" gradientUnits="userSpaceOnUse" x1="916" y1="367.933" x2="1060.4423" y2="367.933">
			<stop  offset="0" style="stop-color:#FF7BAC"/>
			<stop  offset="1" style="stop-color:#FF7BAC;stop-opacity:0"/>
		</linearGradient>
		<path class="st5" d="M1043.84,342.52c-10.39,4.63-17.48,2.41-29.88,4.98c-6.31,1.31-15.34,4.13-25.73,11.07
			c-10.39-6.94-19.43-9.76-25.73-11.07c-12.4-2.57-19.49-0.35-29.88-4.98c-8.1-3.6-13.45-9.26-16.6-13.28
			c2.21,5.45,6.18,13.58,13.28,21.58c16.1,18.11,32.36,17.55,46.49,33.21c3.42,3.79,7.31,9.18,10.43,16.88
			c0.73,1.78,1.41,3.69,2.03,5.71c3.34-10.84,8.23-17.93,12.45-22.6c14.13-15.66,30.38-15.09,46.49-33.21
			c7.11-8,11.07-16.14,13.28-21.58C1057.29,333.26,1051.94,338.92,1043.84,342.52z"/>
		<linearGradient id="SVGID_5_" gradientUnits="userSpaceOnUse" x1="1006.86" y1="386.3391" x2="1030.9871" y2="386.3391">
			<stop  offset="0" style="stop-color:#FF7BAC"/>
			<stop  offset="1" style="stop-color:#FF7BAC;stop-opacity:0"/>
		</linearGradient>
		<path class="st6" d="M1006.86,396.81c6.3,2.88,13.71,1.73,18.71-2.89c5.33-4.92,6.93-12.85,3.9-19.61
			c-2.82,0.79-8.83,2.89-14.32,8.4C1009.76,388.11,1007.67,393.99,1006.86,396.81z"/>
		<linearGradient id="SVGID_6_" gradientUnits="userSpaceOnUse" x1="947.0908" y1="386.3391" x2="971.2179" y2="386.3391">
			<stop  offset="0" style="stop-color:#FF7BAC"/>
			<stop  offset="1" style="stop-color:#FF7BAC;stop-opacity:0"/>
		</linearGradient>
		<path class="st7" d="M971.22,396.81c-6.3,2.88-13.71,1.73-18.71-2.89c-5.33-4.92-6.93-12.85-3.9-19.61
			c2.82,0.79,8.83,2.89,14.32,8.4C968.32,388.11,970.41,393.99,971.22,396.81z"/>
		<linearGradient id="SVGID_7_" gradientUnits="userSpaceOnUse" x1="918.3881" y1="407.075" x2="991.5416" y2="407.075">
			<stop  offset="0" style="stop-color:#FF7BAC"/>
			<stop  offset="1" style="stop-color:#FF7BAC;stop-opacity:0"/>
		</linearGradient>
		<path class="st8" d="M926.79,369.72c2.26,6.45,8.37,21.06,23.24,33.21c16.86,13.77,34.82,16.08,41.51,16.6
			c-10.58,2.79-22.34,6.54-34.87,11.62c-10.48,4.26-19.9,8.8-28.22,13.28c-3.5-6.33-9.13-18.53-9.96-34.87
			C917.53,390.68,923.51,376.34,926.79,369.72z"/>
		<linearGradient id="SVGID_8_" gradientUnits="userSpaceOnUse" x1="919.6747" y1="444.4307" x2="1051.5649" y2="444.4307">
			<stop  offset="0" style="stop-color:#FF7BAC"/>
			<stop  offset="1" style="stop-color:#FF7BAC;stop-opacity:0"/>
		</linearGradient>
		<path class="st9" d="M1046.65,364.74c-6.38,16.04-17.58,36.88-38.19,53.13c-34.42,27.15-68.31,20.37-83.01,44.83
			c-6.44,10.72-10.07,28.88,3.32,61.43c13.98-28.49,31.33-46.42,48.15-58.11c29.29-20.36,52.7-18.82,66.41-39.85
			C1055.1,408.12,1052.41,384.65,1046.65,364.74z"/>
		<linearGradient id="SVGID_9_" gradientUnits="userSpaceOnUse" x1="947.132" y1="477.5738" x2="1077" y2="477.5738">
			<stop  offset="0" style="stop-color:#FF7BAC"/>
			<stop  offset="1" style="stop-color:#FF7BAC;stop-opacity:0"/>
		</linearGradient>
		<path class="st10" d="M1052.85,372.15c4.61,13.1,12.01,40.26-1.66,59.77c-3.47,4.95-8.45,8.35-18.26,14.94
			c-33.9,22.77-47.81,21.33-64.75,38.19c-4.95,4.92-16.35,16.11-19.92,33.21c-6.65,31.82,18.29,59.46,23.24,64.75
			c0.27-17.17,3.31-40.54,16.6-63.09c28.68-48.64,80.28-52.09,87.99-87.99C1078.81,419.27,1076.63,400,1052.85,372.15z"/>
	</g>
</g>
</svg>
