<?xml version="1.0" encoding="utf-8"?>
<!-- Generator: Adobe Illustrator 23.0.3, SVG Export Plug-In . SVG Version: 6.00 Build 0)  -->
<svg version="1.1" id="Layer_1" xmlns="http://www.w3.org/2000/svg" xmlns:xlink="http://www.w3.org/1999/xlink" x="0px" y="0px"
	 viewBox="0 0 1920 1080" style="enable-background:new 0 0 1920 1080;" xml:space="preserve">
<style type="text/css">
	.st0{fill:url(#SVGID_1_);stroke:#000000;stroke-miterlimit:10;}
	.st1{fill:#C7B299;stroke:#000000;stroke-miterlimit:10;}
	.st2{stroke:#000000;stroke-linecap:round;stroke-linejoin:round;stroke-miterlimit:10;}
	.st3{stroke:#000000;stroke-miterlimit:10;}
</style>
<radialGradient id="SVGID_1_" cx="862.6871" cy="634.3057" r="161.7007" fx="877.0897" fy="636.5609" gradientUnits="userSpaceOnUse">
	<stop  offset="0" style="stop-color:#CCE0F4"/>
	<stop  offset="9.844310e-03" style="stop-color:#C3DBF2"/>
	<stop  offset="0.0126" style="stop-color:#BFD9F1"/>
	<stop  offset="0.0306" style="stop-color:#B5D4EE"/>
	<stop  offset="0.0618" style="stop-color:#99C5E7"/>
	<stop  offset="0.1024" style="stop-color:#6BADDB"/>
	<stop  offset="0.1502" style="stop-color:#2D8CCA"/>
	<stop  offset="0.1814" style="stop-color:#0075BE"/>
	<stop  offset="0.2698" style="stop-color:#1E9CD7"/>
	<stop  offset="0.3326" style="stop-color:#117FBB"/>
	<stop  offset="0.9944" style="stop-color:#005B97"/>
</radialGradient>
<path class="st0" d="M1162.5,767.5c0,6.36-0.3,12.66-0.89,18.87c-0.16,1.74-0.34,3.47-0.55,5.19H764.94
	c-0.44-3.56-0.77-7.15-1-10.77c-0.29-4.39-0.44-8.82-0.44-13.29c0-44.29,14.44-85.21,38.86-118.32c0.01-0.02,0.02-0.03,0.03-0.04
	c0.01-0.02,0.03-0.03,0.04-0.05c1.84-2.51,3.75-4.97,5.73-7.39c0.76-0.94,1.53-1.88,2.31-2.8c0.67-0.79,1.34-1.59,2.03-2.37
	C849.09,594.53,902.94,568,963,568c49.44,0,94.69,17.99,129.55,47.77c3.84,3.28,7.56,6.71,11.15,10.28
	c2.36,2.35,4.65,4.75,6.89,7.21c3.61,3.96,7.05,8.06,10.33,12.3c5.53,7.15,10.58,14.69,15.1,22.56c1.85,3.2,3.61,6.47,5.28,9.79
	C1154.86,704.85,1162.5,735.28,1162.5,767.5z"/>
<path class="st1" d="M1074.5,236.5"/>
<path d="M1161.61,786.37c-0.38-12.4-0.74-24.49-1.1-36.57c-0.26-0.01-0.52-0.02-0.79-0.03c-0.38,2.17-0.75,4.32-1.13,6.49
	c-0.1,0-0.21-0.01-0.31-0.01c-0.12-1.13-0.24-2.27-0.36-3.4c-0.59,4.51-1.18,8.98-1.76,13.45c-0.3-0.04-0.58-0.09-0.87-0.12
	c-0.33-3.39-0.67-6.77-1-10.15h-0.39c-0.25,1.89-0.51,3.77-0.75,5.66c-0.15,0-0.3,0-0.45,0.01c-0.49-1.87-0.98-3.73-1.6-6.09
	c-0.55,3.86-1.02,7.14-1.48,10.43c-0.41-0.03-0.82-0.06-1.23-0.09c-0.31-2.88-0.63-5.77-0.97-8.92c-0.45,1.06-0.83,1.91-1.46,3.39
	c-0.72-2.92-1.27-5.14-1.62-6.57c-0.72,1.88-1.65,4.35-2.58,6.82c-0.31-0.11-0.64-0.24-0.96-0.35c0.17-1.48,0.34-2.98,0.52-4.46
	c-0.17-0.03-0.34-0.05-0.52-0.07c-0.48,1.54-0.97,3.08-1.48,4.7c-1.05-2.43-1.97-4.55-2.87-6.64c-1.44,1.63-2.78,3.14-4.1,4.66
	c-0.27-0.14-0.55-0.28-0.82-0.41v-5.41c-0.26-0.04-0.52-0.1-0.79-0.15c-0.72,4.19-1.46,8.39-2.19,12.58
	c-0.24,0.01-0.48,0.03-0.72,0.03c-0.17-2.83-0.36-5.67-0.5-7.96c-0.45,0.84-1.12,2.09-1.79,3.33c-0.26-0.15-0.53-0.31-0.79-0.46
	c0.35,1.37,0.7,2.74,1.05,4.1c-0.27,0.11-0.54,0.22-0.8,0.32c-1.2-1.96-2.41-3.92-3.58-5.81c-0.24,0.68-0.52,1.5-0.79,2.31
	c-0.65-1.1-0.59-2.08-0.38-3.01c0.21-0.92,0.59-1.79,0.91-2.69c-0.22-0.07-0.45-0.14-0.66-0.22c-0.93,2.06-1.86,4.11-3.05,6.76
	c-0.19-1.37-0.29-2.1-0.46-3.4c-0.25,1.11-0.37,1.56-0.6,2.6c-0.59-1.86-0.99-3.1-1.35-4.25c-1.44,3,1.2,6.82-2.13,9.75
	c-0.56-1.96-1.02-3.56-1.69-5.9c-0.27,1.34-0.4,1.96-0.52,2.54c-1.11-0.77-2.04-1.41-3.11-2.15c-0.1,1.23-0.17,2.17-0.31,3.89
	c-1.44-3.53-2.6-6.36-3.75-9.19c-0.21,0.07-0.43,0.15-0.64,0.22v4.28c-0.89-1.53-1.48-2.52-2.21-3.77c-0.22,1.51-0.38,2.6-0.65,4.37
	c-0.62-0.98-0.88-1.39-1.27-2.03c-0.11,1.73-0.21,3.07-0.3,4.42c-0.34,0.15-0.68,0.29-1.01,0.44c-0.93-1.55-1.84-3.08-2.48-4.15
	c-1.39,1.19-3.05,2.61-5.26,4.51c-0.21-3.55-0.37-6.03-0.52-8.5c-0.28-0.04-0.56-0.09-0.84-0.13c-1.94,3.26-3.88,6.52-5.81,9.78
	c-0.17-0.04-0.36-0.08-0.54-0.11c1.17-3.47,2.33-6.92,3.5-10.39c-0.21-0.06-0.42-0.12-0.63-0.18c-1.98,4.09-3.97,8.18-5.95,12.27
	c-0.19-0.07-0.38-0.15-0.58-0.22c0.36-2.31,0.72-4.64,1.11-7.19c-0.62,1.04-1.14,1.9-1.96,3.29v-5.93
	c-1.22,1.64-2.01,2.68-2.95,3.93c-0.1-1.03-0.18-1.82-0.3-2.95c-0.35,0.91-0.57,1.47-0.96,2.48c-0.4-2.33-0.71-4.1-1.02-5.87
	c-0.13,0.01-0.26,0.02-0.4,0.03v4.43c-1.62-0.19-3.02-0.36-4.4-0.52c-0.14-1.49-0.27-2.85-0.36-3.75c-0.58,2.22-1.25,4.78-2.15,8.21
	c-0.67-1.82-1-2.72-1.34-3.61c-0.24-0.01-0.48-0.01-0.72-0.01c-0.36,1.14-0.72,2.27-1.21,3.78c-0.87-4.04-1.65-7.61-2.43-11.18
	c-0.27,0.05-0.54,0.1-0.8,0.16c0.26,1.53,0.52,3.06,0.79,4.57c-0.13,0.03-0.26,0.05-0.38,0.08c-0.54-1.48-1.07-2.97-1.93-5.33
	c0.03,4.99,2.14,9.42-1.86,12.97c-0.57-1.93-1.12-3.77-1.66-5.61c-0.13,0.03-0.26,0.04-0.38,0.06c0.33,2.1,0.66,4.18,1,6.28
	c-0.28,0.1-0.55,0.2-0.82,0.3c-1.45-2.2-2.9-4.4-4.35-6.6c-0.11,0.08-0.23,0.15-0.35,0.23c0.86,1.9,1.71,3.81,2.57,5.72
	c-0.33,0.16-0.66,0.32-1,0.48c-3.29-2.98-3.88-7.37-5.12-11.84c-0.23,1.67-0.42,3.01-0.73,5.28c-0.63-2.01-0.96-3.06-1.31-4.17
	c-0.95,3.42-1.87,6.7-2.79,9.96c-0.24-0.06-0.5-0.12-0.74-0.17v-2.68c-4.78-1.66-3.4-6.07-5.27-9.46v7.38c-0.1,0-0.2,0-0.31-0.01
	c-0.17-0.58-0.34-1.15-0.65-2.22c-0.47,2.66-0.84,4.75-1.41,7.96c-1.27-1.91-2.03-3.06-3.14-4.73c-0.65,2.18-1.18,3.98-1.71,5.78
	c-0.39-0.1-0.78-0.21-1.17-0.31c0.17-3.13,0.36-6.25,0.53-9.38c-0.11-0.01-0.23-0.01-0.35-0.02c-0.53,3.31-1.07,6.61-1.57,9.77
	c-4.92-3.69-1.35-7.85-0.38-12c-2.82,1.3-5.31,2.44-7.81,3.6c-0.8-1.02-1.72-2.18-2.96-3.77c-0.54,3.04-0.94,5.3-1.34,7.56
	c-0.17,0.01-0.34,0.02-0.52,0.03c-0.27-0.91-0.55-1.82-0.9-2.97c-0.3,2.04-0.56,3.83-0.83,5.62c-0.12-0.01-0.25-0.03-0.38-0.04
	c-0.41-1.71-0.82-3.43-1.29-5.4c-0.3,0.63-0.45,0.95-0.6,1.28c-0.16-0.02-0.31-0.03-0.46-0.04v-8.02c-0.27,0.01-0.55,0.01-0.82,0.02
	v12.35c-0.31,0.03-0.63,0.08-0.94,0.11c-0.35-1.48-0.69-2.95-1.07-4.55c-0.67,2.3-1.3,4.44-1.92,6.58
	c-0.19-0.04-0.38-0.08-0.58-0.12c-0.39-3.3-0.78-6.6-1.25-10.56c-0.4,1.21-0.58,1.74-0.79,2.37c-0.36-0.61-0.61-1.06-1.2-2.1v5.56
	c-0.1,0-0.19,0.01-0.29,0.01c-0.29-1.19-0.57-2.37-0.87-3.64c-0.69,1.89-1.26,3.47-2.14,5.91c-0.68-2.87-1.11-4.69-1.74-7.39
	c-2.03,3.72-3.63,6.67-5.26,9.68c-3.82-2.25-0.47-4.89-0.14-7.36c-0.32,0.12-0.65,0.24-0.98,0.37c-0.36-0.86-0.72-1.74-1.1-2.67
	c-0.46,1.38-0.92,2.74-1.48,4.44c-0.55-0.87-0.86-1.34-1.13-1.79c-0.31,0.78-0.59,1.49-1.04,2.6c-0.39-1.01-0.6-1.55-0.79-2.04
	c-0.55,0.71-1.06,1.34-2.29,2.92c-1.3-3.15-2.3-5.59-3.13-7.6c-0.37,1.82-0.83,4.14-1.43,7.15c-0.82-1.57-1.31-2.51-2.06-3.96v5.73
	c-1.33-3.2-2.31-5.59-3.63-8.77v8.88c-0.1-0.03-0.19-0.04-0.29-0.07c-0.86-3.33-1.72-6.66-2.58-9.99c-0.16,0.03-0.32,0.04-0.48,0.07
	c-0.1,0.94-0.18,1.88-0.27,2.82c-0.19-0.23-0.38-0.45-0.58-0.68c-0.26,0.56-0.53,1.12-0.83,1.76c-0.71-0.98-1.3-1.81-2.23-3.09
	c0.61,2.99,1.11,5.39,1.61,7.79c-0.31,0.05-0.61,0.11-0.92,0.17c-1.49-3.72-2.99-7.44-4.75-11.81c0.27,2.98,0.48,5.28,0.7,7.59
	c-0.31,0.08-0.63,0.15-0.93,0.23c-0.49-1.62-0.98-3.23-1.45-4.78c-0.32,2.54-0.65,5.06-0.97,7.58c-0.26-0.01-0.52-0.02-0.79-0.03
	c-0.86-2.84-1.74-5.67-2.6-8.46c-0.56,1.12-1.07,2.13-1.57,3.15c-1.28-0.99-1.05-0.06-1.55,0.86c-1.55,2.79-3.54,5.34-5.35,7.99
	c-0.31-0.09-0.61-0.17-0.92-0.25c-0.43-3.89-0.86-7.79-1.27-11.59c-0.57,1.17-1.43,2.53-1.85,4.01c-0.45,1.59-0.48,3.29-0.76,5.41
	c-4.46-2.86-3.56-7.15-5.27-11.03c0.52,4.14,0.96,7.64,1.42,11.33c-4.53-0.98-2.47-4.54-3.2-7.43c-0.99,2.51-1.79,4.54-2.54,6.46
	c-1.75-1.11-3.26-2.05-5.32-3.35v5.19c-0.27,0.03-0.53,0.07-0.8,0.1c-0.52-1.36-1.03-2.72-1.58-4.16c-0.58,1.46-1.13,2.86-1.92,4.88
	c-0.57-4.64-0.11-8.89-4.13-11.73c0.2,4.58,0.2,4.58-2.61,6.46v-3.96c-0.15,0.01-0.29,0.02-0.43,0.03
	c-0.32,1.28-0.65,2.58-0.96,3.87c-0.22-0.04-0.43-0.1-0.64-0.14c-0.4-2.08-0.8-4.16-1.21-6.24c-0.18,0.02-0.38,0.03-0.57,0.05
	c-0.14,0.95-0.29,1.91-0.43,2.87c-0.69-0.59-1.2-1.04-1.42-1.22c-1.66,3.04-3.26,5.96-4.85,8.89c-0.24-0.08-0.46-0.17-0.69-0.25
	c0.11-1.56,0.24-3.13,0.44-5.63c-1,1.25-1.34,1.68-1.82,2.29c-0.55-1.03-1-1.88-1.54-2.88c-0.73,2.41-1.37,4.5-2.03,6.64
	c-1.41-0.92-0.23-4.42-3.47-3.69c-0.1,0-0.51-1.1-0.62-1.7c-0.17-0.92-0.19-1.86-0.28-2.79c-0.1,0.01-0.19,0.02-0.29,0.03
	c-0.16,1.03-0.31,2.06-0.47,3.09c-0.31-0.04-0.61-0.08-0.91-0.11c0.17-2.16,0.35-4.32,0.52-6.49c-0.22-0.06-0.44-0.12-0.65-0.18
	c-0.6,2.44-1.2,4.86-1.8,7.29c-0.11-0.03-0.24-0.04-0.36-0.07c-0.04-0.74-0.1-1.48-0.19-3.07c-0.72,3.25-1.24,5.61-1.76,7.97
	c-0.35-0.04-0.71-0.1-1.06-0.14c-0.11-1.95-0.23-3.89-0.31-5.29c-1.48-1.2-2.74-2.24-4.13-3.38c0.64,1.75,1.21,3.34,1.84,5.06
	c-1.72,0.3-3.27,0.56-4.99,0.86c-0.43-1.7-0.79-3.14-1.31-5.19v5.58c-1.32-0.63-2.44-1.15-3.88-1.83v3.51
	c-0.2,0.08-0.41,0.16-0.61,0.23c-1.29-2.58-2.58-5.16-3.87-7.74c-0.24,0.11-0.48,0.24-0.72,0.35c0.39,1.65,0.79,3.3,1,4.16
	c-1.05,1-1.61,1.53-2.17,2.07c-0.58-1.93-1.15-3.87-1.89-6.35c-0.8,3.33,0.25,6.71-3.52,8.88c0.24-3.2,0.45-5.79,0.69-8.96
	c-0.74,1.02-1.07,1.48-2.01,2.76v-8.46c-0.88,1.97-1.75,3.94-2.63,5.9c-0.33-0.12-0.66-0.25-1-0.38c-0.2-0.83-0.4-1.66-0.59-2.45
	c-1.25,1.62-2.45,3.06-3.54,4.6c-0.48,0.69-1.19,1.72-0.99,2.32c1.11,3.27-1.2,3.82-4.07,5.14c-0.26-4.85-0.49-9.28-0.72-13.67
	c-0.03,4.45-3.57,7.31-6.09,11.21c-0.65-2.96-1.2-5.53-1.76-8.08c-0.15,0.02-0.31,0.03-0.46,0.04c-0.18,0.95-0.37,1.9-0.61,3.15
	c-0.55-0.87-0.86-1.37-1.27-2.02c-0.39,2.33-0.74,4.41-1.09,6.49c-0.13-0.01-0.27-0.02-0.41-0.02c-0.18-2.43-0.37-4.85-0.57-7.39
	c-0.45,0.98-0.87,1.86-1.4,2.96c-0.33-1.22-0.57-2.1-0.79-2.86c-0.51,0.78-0.9,1.39-1.62,2.5c-0.28-1.72-0.45-2.79-0.63-3.86
	c-0.22,0.01-0.44,0.02-0.65,0.03c-0.1,2-0.2,4-0.3,6c-0.12-0.02-0.24-0.03-0.38-0.03c-0.61-1.97-1.23-3.95-1.96-6.31
	c-0.31,1.88-0.54,3.28-0.93,5.61c-1.3-3.03-2.18-5.07-3.39-7.88c-0.41,2.65-0.65,4.15-0.93,6.03c-0.87-1.42-1.41-2.3-1.96-3.18
	c-0.26,0.17-0.53,0.33-0.79,0.51c0.36,0.99,0.71,1.97,1.12,3.12c-1.05,0.39-1.96,0.74-2.93,1.11c-0.38-2.41-0.71-4.53-1.04-6.65
	c-0.2,0.02-0.41,0.03-0.61,0.04v6.69c-0.14-0.01-0.28-0.02-0.42-0.03c-0.1-1.08-0.18-2.17-0.35-4.06c-0.33,1.81-0.52,2.79-0.79,4.3
	c-0.59-1-0.88-1.5-1.11-1.89c-0.41,1.76-0.83,3.58-1.22,5.27c-1.68-3.05-3.2-5.8-4.71-8.55c-0.87,2.37,1.22,4.45-1.2,6.77
	c-0.86-2.35-1.56-4.22-2.38-6.46c-0.39,2.43-0.74,4.62-1.23,7.62c-0.58-4.22-1.05-7.64-1.53-11.06c-0.16,0.02-0.31,0.03-0.47,0.04
	v12.83h-0.65c-0.1-1.12-0.21-2.24-0.35-3.74c-0.79,1-1.31,1.65-2.01,2.52c-0.19-1.56-0.34-2.79-0.53-4.39
	c-0.33,0.85-0.48,1.22-0.74,1.89c-0.53-3.42-1.02-6.48-1.49-9.51c0.57,4.82-2.29,8.63-4.04,12.7c-0.23,0.52-1.13,1.09-1.65,1.04
	c-0.43-0.04-1-0.94-1.1-1.54c-0.31-1.69-0.41-3.42-0.57-4.89c-0.12,0.13-0.7,0.73-1.59,1.67c-0.86-2.12-1.55-3.84-2.24-5.56
	c0.38,2.86,0.74,5.74,1.16,8.91c-0.63-0.45-1.1-0.79-1.14-0.82c-0.27,2.23-0.56,4.6-0.84,6.98c-0.41-0.03-0.82-0.04-1.23-0.07
	c-1.91-2.39-0.23-5.12-0.17-7.66c0.07-2.87,0.65-5.73,1.02-8.59c-0.93,3.58-1.86,7.16-2.79,10.74c-0.12-0.02-0.24-0.03-0.37-0.06
	v-8.22c-0.17,0.01-0.35,0.03-0.52,0.03c-0.13,1.89-0.26,3.77-0.43,6.25c-1.83-2.47-3.12-1.86-4.06,0.03
	c-0.87-4.11-1.68-7.95-2.5-11.8c-0.11,0.01-0.23,0.01-0.35,0.01v12.48c-1.46-2.15-2.72-4-4.03-5.93c-0.52,0.99-0.89,1.7-1.27,2.42
	v33.12h397.83C1161.71,789.82,1161.66,788.09,1161.61,786.37z M856.68,768.47c-0.38-2.94-0.78-5.88-1.16-8.81
	c0.5-0.05,1-0.1,1.49-0.16c0.3,2.97,0.59,5.94,0.89,8.9C857.5,768.42,857.09,768.44,856.68,768.47z"/>
<path d="M1050.97,711.13c0.4-0.43,0.79-0.86,1.27-1.38c-0.28-0.04-0.35-0.08-0.4-0.06c-0.52,0.21-1.03,0.42-1.55,0.64
	c-6.29,2.68-12.62,5.19-18.27,9.19c-3.4,2.4-7.35,3.66-11.65,3.47c-4.51-0.19-8.58-1.69-12.43-3.95c-2.44-1.43-4.98-2.69-7.82-3.14
	c-1.31-0.2-2.63-0.36-3.93-0.62c-4.85-0.95-9.7-1.96-14.56-2.89c-1.89-0.37-3.8-0.62-5.7-0.93c0-0.07,0-0.15,0.01-0.22
	c0.34-0.16,0.69-0.31,1.04-0.45c-0.99-0.04-1.94-0.09-2.89-0.13c-0.01-0.07-0.02-0.14-0.03-0.22c0.22-0.11,0.43-0.24,0.72-0.4
	c-1.4-0.14-2.7-0.28-4-0.41c0.01-0.07,0.03-0.15,0.03-0.22c0.14-0.05,0.29-0.1,0.55-0.18c-0.93-0.15-1.71-0.27-2.5-0.4
	c0.02-0.06,0.03-0.12,0.03-0.18c0.32-0.1,0.65-0.21,1.11-0.36c-1.05-0.27-1.9-0.5-2.77-0.72c0.01-0.05,0.02-0.11,0.03-0.17
	c0.24-0.06,0.49-0.11,0.79-0.19c-0.86-0.26-1.6-0.49-2.33-0.72c0.01-0.08,0.02-0.15,0.03-0.22c0.47-0.04,0.95-0.1,1.59-0.16
	c-1.31-0.39-2.44-0.74-3.58-1.09c0.03-0.08,0.05-0.15,0.08-0.23c0.32-0.04,0.65-0.08,0.95-0.12c-0.64-0.23-1.28-0.46-2.15-0.78
	c0.45-0.17,0.6-0.22,0.9-0.33c-1.81-0.39-2.58-1.55-2.9-3.28c0.6-0.04,1.15-0.03,1.69-0.14c1.01-0.19,2.03-0.39,3.01-0.72
	c0.3-0.1,0.62-0.59,0.65-0.93c0.02-0.27-0.32-0.72-0.61-0.85c-1.31-0.55-2.63-1.13-4-1.48c-2.1-0.52-3.98-1.35-5.35-3.06
	c-1.14-1.41-2.18-2.89-3.21-4.38c-1.01-1.47-2.3-2.47-4.05-2.93c-0.69-0.19-1.47-0.46-1.93-0.96c-1.03-1.07-1.96-2.27-2.79-3.51
	c-0.51-0.76-1.02-0.96-1.82-0.67c-0.71,0.25-1.19,0.59-1.47,1.42c-0.24,0.73-1.01,1.28-1.54,1.93c-0.21,0.26-0.38,0.57-0.68,1.02
	c0.44-0.14,0.63-0.2,0.9-0.3c-0.1,0.82-0.17,1.58-0.3,2.33c-0.03,0.17-0.33,0.45-0.45,0.42c-0.72-0.18-1.8,0.2-1.89-1.32
	c-0.47,0.61-0.87,1.01-1.14,1.48c-0.73,1.34-0.51,2.27,0.6,3.28c1.3,1.18,1.94,2.69,2.1,4.43c0.05,0.62,0.24,1.22,0.32,1.59
	c-0.23,0.95-0.64,1.75-0.56,2.51c0.51,4.37,1.08,8.72,0.82,13.14c-0.02,0.24-0.02,0.5,0.06,0.72c0.24,0.74,0.52,1.48,0.81,2.2
	c0.14,0.32,0.38,0.59,0.58,0.88c0.2,0.37,0.01,1.01,0.24,1.23c1.12,1.06,1.34,2.64,2.42,3.77c0.79,0.85,1.57,2.05,1.41,3.48
	c-0.03,0.37,0.23,0.77,0.36,1.18c0.23-0.14,0.38-0.24,0.67-0.41c-0.36,1.96,0.38,3.48,1.39,4.92c0.2,0.28,0.36,0.6,0.49,0.93
	c0.86,2.18,2.19,4.03,3.98,5.55c0.37,0.31,0.65,0.73,0.99,1.09c1.64,1.69,1.93,3.96,2.58,6.08c1.06,3.38,2,6.76,1.66,10.35
	c-0.15,1.54-0.49,2.92-1.84,3.92c-0.91,0.67-1.76,1.43-2.54,2.24c-0.82,0.86-0.64,1.52,0.52,1.58c1.62,0.08,3.27-0.11,4.89-0.28
	c0.35-0.03,0.77-0.38,1-0.7c0.83-1.16,1.75-2.3,2.32-3.6c0.44-0.96,0.66-2.17,0.52-3.22c-0.45-3.35-1.11-6.67-1.68-10.01
	c-0.46-2.71-0.93-5.42-1.38-8.13c0.06-0.03,0.13-0.06,0.19-0.09c0.62,1,1.21,2,1.86,2.97c0.96,1.47,1.51,3.03,1.62,4.79
	c0.17,2.65,0.36,5.31,0.74,7.93c0.45,3.06,0.04,5.89-1.59,8.54c-0.28,0.45-0.44,0.96-0.7,1.41c-0.38,0.64-0.29,1.07,0.38,1.46
	c1.47,0.86,3.06,0.96,4.64,0.59c0.65-0.15,1.57-0.76,1.69-1.32c0.33-1.47,0.54-3.06,0.34-4.53c-0.24-1.79-0.37-3.53-0.08-5.3
	c0.22-1.38,0.38-2.77,0.58-4.15c0.51-3.7,1.01-7.4,1.51-11.1c0.1-0.66,0.21-1.2,1.14-1.12c3.13,0.3,6.26,0.51,9.39,0.8
	c2.06,0.19,4.06,0.78,5.52,2.26c2.36,2.42,4.73,4.85,6.76,7.54c2.89,3.83,1.48,8.91-2.79,11c-0.22,0.1-0.46,0.19-0.65,0.34
	c-0.54,0.43-0.75,1.64-0.34,1.93c1.28,0.92,5.8,0.37,6.78-0.84c0.15-0.18,0.25-0.42,0.33-0.65c1.14-3.22,2.29-6.44,3.42-9.66
	c0.48-1.34,0.45-2.58-0.65-3.67c-0.67-0.69-1.58-1.36-1.83-2.21c-0.5-1.58-0.59-3.28-0.85-4.93c2.17,1.37,4.05,2.86,5.98,4.29
	c1.56,1.16,2.9,2.5,3.92,4.16c0.56,0.89,1.2,1.73,1.81,2.57c0.76,1.04,1.13,2.18,0.91,3.45c-0.24,1.37-0.57,2.72-0.83,4.09
	c-0.23,1.24-0.97,1.97-2.17,2.25c-1.18,0.28-1.73,1.16-2.23,2.27c0.89,0.21,1.69,0.4,2.5,0.59c2.26,0.52,4.43-0.84,5.19-3.04
	c1.09-3.15,1.2-6.42,1.46-9.68c0.1-1.28-0.2-2.28-0.97-3.28c-1.96-2.51-3.35-5.33-4.04-8.43c-0.59-2.63-0.95-5.32-1.46-8.22
	c3.36,0,6.47-0.19,9.54,0.07c2.37,0.2,4.71,0.98,7.05,1.48c0.36,0.08,0.74,0.05,1.11,0.01c0.53-0.04,1.07-0.26,1.58-0.21
	c1.56,0.16,3.11,0.4,4.96,0.65c-0.59-0.46-0.92-0.72-1.25-0.99c0.02-0.11,0.03-0.23,0.04-0.34c1.83-0.18,3.67-0.36,5.55-0.55
	c-0.38-0.42-0.73-0.8-1.14-1.25c2.03-1.08,4.08-1.22,6.19-1.32c-0.86-0.37-1.73-0.72-2.74-1.14c2.09-1.83,4.46-1.07,6.66-1.43
	c-0.79-0.32-1.57-0.64-2.37-0.96c0-0.12-0.01-0.24-0.02-0.36c1.89-0.46,3.78-0.93,5.89-1.44c-1-0.24-1.82-0.45-2.65-0.65
	c-0.02-0.12-0.03-0.25-0.04-0.38c1.63-0.54,3.27-1.08,4.97-1.65c-0.24-0.14-0.47-0.24-0.65-0.39c-0.25-0.21-0.46-0.46-0.7-0.69
	c0.31-0.19,0.58-0.45,0.91-0.57c0.65-0.23,1.33-0.38,2.16-0.62c-0.31-0.2-0.41-0.29-0.53-0.36c-1.78-1-2.01-2.44-0.61-3.97
	C1050.17,711.92,1050.59,711.53,1050.97,711.13z M949.12,688.4c1.48,0.1,1.55,0.17,1.89,1.82
	C949.93,690.3,948.97,689.42,949.12,688.4z"/>
<path class="st2" d="M857.79,647.45c-0.01,0.65-10.46,1.34-55.35,1.63c1.84-2.51,3.75-4.97,5.73-7.39c0.76-0.94,1.53-1.88,2.31-2.8
	c0.58-0.12,1.22-0.18,1.91-0.17c5.05,0.05,5.08,3.71,11.35,5.24c6.71,1.63,7.89-2.25,16.59-0.87c2.13,0.34,1.68,0.51,10.48,2.62
	C856.79,647.14,857.79,647.25,857.79,647.45z"/>
<path class="st2" d="M1110.58,633.26c-24.17-0.46-48.33-0.92-72.5-1.38c2.71-1.82,7.05-4.25,12.8-5.33
	c6.64-1.25,8.16,0.64,13.33-1.07c7.49-2.47,7.73-7.56,13.86-8c4.23-0.31,5.29,2.03,9.6,1.07c2.6-0.58,3.33-1.69,4.87-2.78
	c3.84,3.28,7.56,6.71,11.15,10.28C1106.05,628.4,1108.35,630.8,1110.58,633.26z"/>
<path class="st3" d="M1141.3,677.91c-16.71-0.2-33.41-0.41-50.13-0.6c2.56-0.86,5.88-1.73,9.82-2.1c3.23-0.31,6.08-0.23,8.43,0
	c4.07-2.7,7.46-3.39,9.82-3.51c4.23-0.23,5.83,1.32,9.11,0c2.92-1.17,3.29-3.05,6.31-3.51c0.52-0.08,0.97-0.1,1.35-0.06
	C1137.87,671.33,1139.63,674.59,1141.3,677.91z"/>
</svg>
