<?xml version="1.0" encoding="utf-8"?>
<!-- Generator: Adobe Illustrator 23.0.3, SVG Export Plug-In . SVG Version: 6.00 Build 0)  -->
<svg version="1.1" xmlns="http://www.w3.org/2000/svg" xmlns:xlink="http://www.w3.org/1999/xlink" x="0px" y="0px"
	 viewBox="0 0 1920 1080" style="enable-background:new 0 0 1920 1080;" xml:space="preserve">
<style type="text/css">
	.st0{stroke:#000000;stroke-miterlimit:10;}
	.st1{fill:#C7B299;stroke:#000000;stroke-miterlimit:10;}
	.st2{fill:url(#SVGID_1_);stroke:#000000;stroke-miterlimit:10;}
	.st3{stroke:#000000;stroke-linecap:round;stroke-linejoin:round;stroke-miterlimit:10;}
</style>
<g id="bg">
	<rect x="-0.5" y="-0.5" class="st0" width="1920" height="1080"/>
</g>
<g id="Layer_1">
	<path class="st1" d="M1074.5,236.5"/>
	<g>
		
			<radialGradient id="SVGID_1_" cx="781.6818" cy="430.3557" r="382.1526" fx="815.7202" fy="435.6853" gradientUnits="userSpaceOnUse">
			<stop  offset="0" style="stop-color:#CCE0F4"/>
			<stop  offset="9.844310e-03" style="stop-color:#C3DBF2"/>
			<stop  offset="0.0126" style="stop-color:#BFD9F1"/>
			<stop  offset="0.0306" style="stop-color:#B5D4EE"/>
			<stop  offset="0.0618" style="stop-color:#99C5E7"/>
			<stop  offset="0.1024" style="stop-color:#6BADDB"/>
			<stop  offset="0.1502" style="stop-color:#2D8CCA"/>
			<stop  offset="0.1814" style="stop-color:#0075BE"/>
			<stop  offset="0.2698" style="stop-color:#1E9CD7"/>
			<stop  offset="0.3326" style="stop-color:#117FBB"/>
			<stop  offset="0.9944" style="stop-color:#005B97"/>
		</radialGradient>
		<path class="st2" d="M1490.23,745.13c0,15.04-0.7,29.92-2.1,44.59c-0.37,4.11-0.8,8.21-1.3,12.28H550.67
			c-1.03-8.42-1.82-16.9-2.37-25.46c-0.68-10.38-1.03-20.84-1.03-31.4c0-104.67,34.13-201.39,91.84-279.63
			c0.02-0.04,0.04-0.06,0.08-0.1c0.02-0.04,0.06-0.08,0.1-0.12c4.35-5.92,8.87-11.74,13.54-17.46c1.8-2.23,3.61-4.44,5.47-6.62
			c1.59-1.88,3.18-3.76,4.81-5.61c86.43-99.23,213.7-161.93,355.64-161.93c116.85,0,223.77,42.51,306.16,112.91
			c9.08,7.76,17.87,15.87,26.35,24.29c5.57,5.55,11,11.22,16.28,17.04c8.52,9.37,16.65,19.04,24.41,29.07
			c13.06,16.9,25.01,34.71,35.7,53.32c4.37,7.57,8.54,15.29,12.48,23.13C1472.18,597.07,1490.23,669,1490.23,745.13z"/>
		<path d="M1488.13,789.72c-0.89-29.3-1.75-57.88-2.6-86.43c-0.62-0.02-1.24-0.04-1.86-0.06c-0.89,5.12-1.77,10.21-2.66,15.33
			c-0.25,0-0.5-0.02-0.74-0.02c-0.29-2.68-0.58-5.36-0.85-8.03c-1.4,10.67-2.79,21.23-4.17,31.8c-0.7-0.1-1.38-0.21-2.06-0.29
			c-0.78-8.01-1.59-15.99-2.37-23.98h-0.93c-0.6,4.46-1.2,8.91-1.77,13.37c-0.35,0-0.7,0-1.05,0.02c-1.16-4.42-2.31-8.81-3.78-14.4
			c-1.3,9.12-2.41,16.88-3.51,24.66c-0.97-0.08-1.94-0.14-2.91-0.21c-0.74-6.81-1.49-13.64-2.29-21.09
			c-1.07,2.5-1.96,4.52-3.45,8.01c-1.71-6.91-3.01-12.15-3.84-15.52c-1.69,4.44-3.9,10.28-6.11,16.11
			c-0.74-0.27-1.51-0.56-2.27-0.83c0.41-3.51,0.8-7.04,1.22-10.54c-0.41-0.06-0.8-0.12-1.22-0.17c-1.13,3.63-2.29,7.28-3.49,11.1
			c-2.48-5.74-4.66-10.75-6.79-15.68c-3.4,3.86-6.56,7.43-9.7,11.02c-0.64-0.33-1.3-0.66-1.94-0.97v-12.79
			c-0.62-0.1-1.24-0.23-1.88-0.35c-1.71,9.9-3.45,19.83-5.18,29.73c-0.56,0.02-1.13,0.06-1.71,0.08
			c-0.41-6.69-0.85-13.39-1.18-18.82c-1.07,1.98-2.64,4.93-4.23,7.86c-0.62-0.35-1.26-0.72-1.88-1.09c0.83,3.24,1.65,6.48,2.48,9.7
			c-0.64,0.27-1.28,0.52-1.9,0.76c-2.85-4.64-5.69-9.26-8.46-13.72c-0.56,1.61-1.22,3.55-1.88,5.47c-1.53-2.6-1.4-4.91-0.89-7.12
			c0.5-2.17,1.4-4.23,2.15-6.36c-0.52-0.16-1.05-0.33-1.57-0.52c-2.19,4.87-4.39,9.72-7.2,15.97c-0.45-3.24-0.68-4.95-1.09-8.03
			c-0.6,2.62-0.87,3.69-1.42,6.15c-1.4-4.4-2.33-7.32-3.2-10.05c-3.4,7.1,2.83,16.11-5.03,23.05c-1.32-4.62-2.41-8.42-4-13.95
			c-0.64,3.18-0.95,4.62-1.22,6c-2.62-1.82-4.83-3.34-7.35-5.08c-0.23,2.91-0.41,5.14-0.74,9.2c-3.4-8.34-6.15-15.04-8.87-21.73
			c-0.5,0.17-1.01,0.35-1.51,0.52v10.11c-2.1-3.61-3.49-5.96-5.22-8.91c-0.52,3.57-0.91,6.15-1.53,10.32
			c-1.47-2.31-2.08-3.28-3.01-4.79c-0.27,4.09-0.5,7.26-0.7,10.44c-0.8,0.35-1.61,0.68-2.39,1.03c-2.19-3.65-4.35-7.28-5.86-9.8
			c-3.28,2.81-7.2,6.17-12.44,10.65c-0.5-8.4-0.87-14.26-1.22-20.1c-0.66-0.1-1.32-0.21-1.98-0.31c-4.58,7.7-9.16,15.41-13.74,23.11
			c-0.41-0.1-0.85-0.19-1.28-0.27c2.77-8.19,5.51-16.36,8.27-24.55c-0.5-0.14-0.99-0.29-1.49-0.43
			c-4.68,9.66-9.39,19.33-14.07,28.99c-0.45-0.17-0.91-0.35-1.36-0.52c0.85-5.47,1.69-10.96,2.62-16.98
			c-1.47,2.46-2.68,4.5-4.64,7.78v-14.01c-2.89,3.88-4.75,6.33-6.97,9.29c-0.25-2.43-0.43-4.31-0.7-6.97
			c-0.83,2.15-1.34,3.47-2.27,5.86c-0.95-5.51-1.67-9.7-2.41-13.87c-0.31,0.02-0.62,0.04-0.95,0.08v10.46
			c-3.84-0.45-7.14-0.85-10.4-1.24c-0.33-3.53-0.64-6.75-0.85-8.87c-1.36,5.24-2.95,11.29-5.08,19.4c-1.59-4.29-2.37-6.42-3.16-8.52
			c-0.56-0.02-1.13-0.02-1.69-0.02c-0.85,2.68-1.71,5.36-2.87,8.93c-2.06-9.55-3.9-17.99-5.74-26.43c-0.64,0.12-1.28,0.25-1.9,0.37
			c0.62,3.61,1.24,7.22,1.86,10.81c-0.31,0.06-0.62,0.12-0.91,0.19c-1.28-3.51-2.54-7.02-4.56-12.61
			c0.06,11.78,5.06,22.26-4.4,30.66c-1.34-4.56-2.64-8.91-3.92-13.27c-0.31,0.06-0.62,0.1-0.91,0.14c0.78,4.95,1.57,9.88,2.35,14.84
			c-0.66,0.25-1.3,0.47-1.94,0.7c-3.43-5.2-6.85-10.4-10.28-15.6c-0.27,0.19-0.54,0.35-0.83,0.54c2.02,4.5,4.04,9,6.07,13.52
			c-0.78,0.37-1.57,0.76-2.35,1.13c-7.78-7.04-9.16-17.41-12.11-27.98c-0.54,3.94-0.99,7.12-1.73,12.48
			c-1.49-4.75-2.27-7.24-3.1-9.86c-2.25,8.09-4.42,15.83-6.58,23.54c-0.58-0.14-1.18-0.29-1.75-0.41v-6.33
			c-11.31-3.92-8.03-14.34-12.46-22.37v17.44c-0.25,0-0.47,0-0.72-0.02c-0.39-1.36-0.8-2.72-1.53-5.24
			c-1.11,6.29-1.98,11.22-3.32,18.82c-2.99-4.52-4.79-7.22-7.43-11.18c-1.53,5.16-2.79,9.41-4.04,13.66
			c-0.93-0.25-1.84-0.5-2.76-0.74c0.41-7.39,0.85-14.77,1.26-22.16c-0.27-0.02-0.54-0.02-0.83-0.04
			c-1.26,7.82-2.52,15.62-3.71,23.09c-11.62-8.73-3.2-18.55-0.91-28.37c-6.66,3.07-12.55,5.76-18.47,8.5c-1.9-2.41-4.06-5.16-7-8.91
			c-1.28,7.18-2.23,12.52-3.18,17.87c-0.41,0.02-0.8,0.04-1.22,0.06c-0.64-2.15-1.3-4.29-2.13-7.02c-0.7,4.83-1.32,9.06-1.96,13.29
			c-0.29-0.02-0.6-0.06-0.91-0.1c-0.97-4.04-1.94-8.11-3.05-12.75c-0.7,1.49-1.05,2.25-1.42,3.03c-0.37-0.04-0.72-0.06-1.09-0.1
			v-18.96c-0.64,0.02-1.3,0.02-1.94,0.04v29.2c-0.74,0.08-1.49,0.19-2.23,0.27c-0.83-3.49-1.63-6.97-2.52-10.75
			c-1.59,5.45-3.07,10.5-4.54,15.56c-0.45-0.1-0.91-0.19-1.36-0.29c-0.93-7.8-1.84-15.6-2.95-24.95c-0.95,2.87-1.36,4.11-1.88,5.61
			c-0.85-1.44-1.44-2.5-2.85-4.95v13.14c-0.23,0-0.45,0.02-0.68,0.02c-0.68-2.81-1.34-5.61-2.06-8.6
			c-1.63,4.48-2.97,8.21-5.06,13.97c-1.61-6.79-2.62-11.08-4.11-17.46c-4.79,8.79-8.58,15.76-12.44,22.88
			c-9.02-5.32-1.11-11.55-0.33-17.39c-0.76,0.29-1.55,0.58-2.31,0.87c-0.85-2.04-1.69-4.11-2.6-6.31
			c-1.09,3.26-2.17,6.48-3.49,10.48c-1.3-2.06-2.02-3.18-2.68-4.23c-0.72,1.84-1.4,3.53-2.46,6.15c-0.93-2.39-1.42-3.65-1.88-4.83
			c-1.3,1.67-2.5,3.18-5.41,6.89c-3.07-7.45-5.45-13.21-7.41-17.97c-0.87,4.31-1.96,9.78-3.38,16.9c-1.94-3.71-3.1-5.94-4.87-9.37
			v13.54c-3.14-7.57-5.47-13.21-8.58-20.74v20.98c-0.23-0.06-0.45-0.1-0.68-0.17c-2.04-7.86-4.06-15.74-6.11-23.6
			c-0.37,0.06-0.76,0.1-1.13,0.17c-0.23,2.23-0.43,4.44-0.64,6.66c-0.45-0.54-0.91-1.07-1.36-1.61c-0.62,1.32-1.26,2.64-1.96,4.17
			c-1.67-2.31-3.07-4.27-5.26-7.3c1.44,7.06,2.62,12.73,3.8,18.41c-0.72,0.12-1.44,0.27-2.17,0.39
			c-3.53-8.79-7.08-17.58-11.22-27.92c0.64,7.04,1.13,12.48,1.65,17.93c-0.74,0.19-1.49,0.35-2.21,0.54
			c-1.16-3.82-2.31-7.63-3.43-11.29c-0.76,6-1.53,11.95-2.29,17.91c-0.62-0.02-1.24-0.04-1.86-0.06
			c-2.04-6.71-4.11-13.39-6.15-19.99c-1.32,2.64-2.52,5.03-3.71,7.45c-3.03-2.33-2.48-0.14-3.67,2.02
			c-3.67,6.58-8.36,12.63-12.65,18.88c-0.72-0.21-1.44-0.39-2.17-0.6c-1.01-9.2-2.02-18.41-2.99-27.4
			c-1.34,2.77-3.38,5.98-4.37,9.47c-1.07,3.76-1.13,7.78-1.8,12.79c-10.54-6.77-8.42-16.9-12.46-26.06
			c1.24,9.78,2.27,18.05,3.36,26.78c-10.71-2.31-5.84-10.73-7.55-17.56c-2.33,5.94-4.23,10.73-6,15.27
			c-4.15-2.62-7.7-4.85-12.57-7.92v12.28c-0.64,0.08-1.26,0.17-1.9,0.25c-1.22-3.22-2.43-6.44-3.73-9.84
			c-1.36,3.45-2.66,6.77-4.54,11.53c-1.34-10.98-0.27-21.01-9.76-27.71c0.47,10.83,0.47,10.83-6.17,15.27v-9.37
			c-0.35,0.02-0.68,0.04-1.01,0.06c-0.76,3.03-1.53,6.09-2.27,9.14c-0.52-0.1-1.01-0.23-1.51-0.33c-0.95-4.91-1.9-9.84-2.87-14.75
			c-0.43,0.04-0.89,0.08-1.34,0.12c-0.33,2.25-0.68,4.52-1.01,6.79c-1.63-1.4-2.85-2.46-3.36-2.89c-3.92,7.18-7.7,14.09-11.47,21.01
			c-0.56-0.19-1.09-0.39-1.63-0.6c0.27-3.69,0.56-7.39,1.03-13.31c-2.35,2.95-3.16,3.96-4.29,5.41c-1.3-2.43-2.35-4.44-3.63-6.81
			c-1.73,5.69-3.24,10.63-4.79,15.68c-3.34-2.17-0.54-10.44-8.19-8.73c-0.23,0-1.2-2.6-1.47-4.02c-0.39-2.17-0.45-4.39-0.66-6.6
			c-0.23,0.02-0.45,0.04-0.68,0.06c-0.37,2.43-0.74,4.87-1.11,7.3c-0.72-0.1-1.44-0.19-2.15-0.27c0.41-5.1,0.83-10.21,1.24-15.33
			c-0.52-0.14-1.03-0.29-1.53-0.43c-1.42,5.76-2.83,11.49-4.25,17.23c-0.27-0.06-0.56-0.1-0.85-0.16c-0.1-1.75-0.23-3.51-0.45-7.26
			c-1.69,7.68-2.93,13.27-4.17,18.84c-0.83-0.1-1.67-0.23-2.5-0.33c-0.27-4.6-0.54-9.18-0.74-12.5c-3.49-2.85-6.48-5.3-9.76-7.99
			c1.51,4.15,2.87,7.9,4.35,11.97c-4.06,0.7-7.72,1.32-11.8,2.02c-1.01-4.02-1.88-7.43-3.1-12.28v13.18
			c-3.12-1.49-5.76-2.72-9.16-4.33v8.29c-0.47,0.19-0.97,0.37-1.44,0.54c-3.05-6.09-6.11-12.19-9.14-18.28
			c-0.58,0.27-1.13,0.56-1.71,0.83c0.93,3.9,1.86,7.8,2.35,9.82c-2.48,2.35-3.8,3.61-5.14,4.89c-1.36-4.56-2.72-9.14-4.48-15
			c-1.9,7.86,0.6,15.85-8.32,20.98c0.58-7.57,1.05-13.68,1.63-21.17c-1.75,2.41-2.54,3.49-4.75,6.52v-19.99
			c-2.08,4.66-4.15,9.31-6.21,13.95c-0.78-0.29-1.57-0.6-2.37-0.89c-0.47-1.96-0.95-3.92-1.4-5.8c-2.95,3.82-5.8,7.22-8.36,10.87
			c-1.13,1.63-2.81,4.06-2.33,5.49c2.62,7.72-2.83,9.02-9.62,12.15c-0.62-11.47-1.16-21.93-1.69-32.31
			c-0.08,10.52-8.44,17.27-14.38,26.49c-1.53-6.99-2.85-13.06-4.17-19.11c-0.35,0.04-0.72,0.06-1.09,0.1
			c-0.43,2.25-0.87,4.5-1.44,7.45c-1.3-2.06-2.04-3.24-2.99-4.77c-0.93,5.51-1.75,10.42-2.58,15.33c-0.31-0.02-0.64-0.04-0.97-0.04
			c-0.43-5.74-0.87-11.47-1.34-17.48c-1.07,2.31-2.06,4.39-3.3,6.99c-0.78-2.89-1.34-4.95-1.86-6.77c-1.2,1.84-2.13,3.28-3.82,5.9
			c-0.66-4.06-1.07-6.6-1.49-9.12c-0.52,0.02-1.03,0.04-1.53,0.06c-0.23,4.73-0.47,9.45-0.7,14.18c-0.29-0.04-0.58-0.06-0.89-0.08
			c-1.44-4.66-2.91-9.33-4.64-14.92c-0.74,4.44-1.28,7.76-2.19,13.25c-3.07-7.16-5.16-11.99-8.01-18.61
			c-0.97,6.27-1.53,9.8-2.21,14.26c-2.06-3.36-3.34-5.45-4.62-7.51c-0.62,0.39-1.26,0.78-1.88,1.2c0.85,2.33,1.67,4.66,2.64,7.37
			c-2.48,0.93-4.64,1.75-6.93,2.62c-0.89-5.69-1.67-10.71-2.46-15.72c-0.47,0.04-0.97,0.06-1.44,0.1v15.81
			c-0.33-0.02-0.66-0.04-0.99-0.06c-0.23-2.56-0.43-5.12-0.83-9.59c-0.78,4.27-1.22,6.6-1.86,10.15c-1.4-2.37-2.08-3.55-2.62-4.48
			c-0.97,4.17-1.96,8.46-2.89,12.46c-3.96-7.2-7.55-13.7-11.12-20.2c-2.06,5.59,2.89,10.52-2.83,15.99
			c-2.04-5.55-3.69-9.97-5.63-15.27c-0.93,5.74-1.75,10.92-2.91,18.01c-1.36-9.97-2.48-18.05-3.61-26.14
			c-0.37,0.04-0.74,0.08-1.11,0.1v30.33h-1.55c-0.25-2.64-0.5-5.3-0.83-8.83c-1.86,2.35-3.1,3.9-4.75,5.96
			c-0.45-3.69-0.8-6.58-1.26-10.38c-0.78,2-1.13,2.89-1.75,4.46c-1.26-8.09-2.41-15.31-3.53-22.47c1.34,11.39-5.41,20.39-9.55,30.02
			c-0.54,1.24-2.66,2.58-3.9,2.46c-1.01-0.1-2.35-2.23-2.6-3.63c-0.72-4-0.97-8.09-1.34-11.55c-0.29,0.31-1.65,1.73-3.76,3.94
			c-2.02-5.01-3.65-9.08-5.3-13.14c0.89,6.77,1.75,13.56,2.74,21.05c-1.49-1.07-2.6-1.86-2.7-1.94c-0.64,5.26-1.32,10.87-1.98,16.49
			c-0.97-0.06-1.94-0.1-2.91-0.17c-4.52-5.65-0.54-12.11-0.39-18.1c0.17-6.79,1.55-13.54,2.41-20.3c-2.19,8.46-4.4,16.92-6.58,25.38
			c-0.29-0.04-0.58-0.08-0.87-0.14v-19.44c-0.41,0.02-0.83,0.06-1.22,0.08c-0.31,4.46-0.62,8.91-1.01,14.77
			c-4.33-5.84-7.37-4.39-9.59,0.08c-2.06-9.72-3.98-18.8-5.9-27.9c-0.27,0.02-0.54,0.02-0.83,0.02v29.49
			c-3.45-5.08-6.42-9.45-9.53-14.01c-1.22,2.33-2.1,4.02-2.99,5.72V802h940.2C1488.37,797.89,1488.25,793.81,1488.13,789.72z
			 M767.49,747.42c-0.91-6.95-1.84-13.89-2.74-20.82c1.18-0.12,2.35-0.25,3.53-0.37c0.7,7.02,1.4,14.03,2.1,21.03
			C769.43,747.32,768.46,747.36,767.49,747.42z"/>
		<path d="M1226.66,611.92c0.95-1.01,1.88-2.04,2.99-3.26c-0.66-0.1-0.83-0.19-0.95-0.14c-1.22,0.5-2.43,0.99-3.65,1.51
			c-14.86,6.33-29.82,12.28-43.19,21.73c-8.03,5.67-17.37,8.65-27.53,8.19c-10.67-0.45-20.28-3.98-29.38-9.33
			c-5.78-3.38-11.76-6.36-18.49-7.43c-3.1-0.47-6.21-0.85-9.29-1.46c-11.47-2.25-22.92-4.62-34.42-6.83
			c-4.46-0.87-8.98-1.47-13.47-2.19c0-0.17,0-0.35,0.02-0.52c0.8-0.37,1.63-0.72,2.46-1.07c-2.33-0.1-4.58-0.21-6.83-0.31
			c-0.02-0.16-0.04-0.33-0.08-0.52c0.52-0.27,1.01-0.56,1.69-0.95c-3.3-0.33-6.38-0.66-9.45-0.97c0.02-0.16,0.06-0.35,0.08-0.52
			c0.33-0.12,0.68-0.23,1.3-0.43c-2.19-0.35-4.04-0.64-5.9-0.95c0.04-0.14,0.06-0.29,0.08-0.43c0.76-0.25,1.53-0.5,2.62-0.85
			c-2.48-0.64-4.5-1.18-6.54-1.69c0.02-0.12,0.04-0.27,0.06-0.39c0.58-0.14,1.16-0.27,1.88-0.45c-2.02-0.62-3.78-1.16-5.51-1.69
			c0.02-0.19,0.04-0.35,0.08-0.52c1.11-0.1,2.25-0.23,3.76-0.37c-3.1-0.93-5.78-1.75-8.46-2.58c0.06-0.19,0.12-0.35,0.19-0.54
			c0.76-0.1,1.55-0.19,2.25-0.29c-1.51-0.54-3.03-1.09-5.08-1.84c1.07-0.39,1.42-0.52,2.13-0.78c-4.27-0.93-6.11-3.67-6.85-7.76
			c1.42-0.1,2.72-0.08,3.98-0.33c2.39-0.45,4.81-0.93,7.12-1.69c0.7-0.23,1.47-1.4,1.53-2.21c0.04-0.64-0.76-1.71-1.44-2
			c-3.1-1.3-6.21-2.68-9.45-3.51c-4.95-1.24-9.41-3.2-12.65-7.22c-2.68-3.32-5.16-6.83-7.59-10.36c-2.39-3.47-5.45-5.84-9.57-6.93
			c-1.63-0.45-3.47-1.09-4.56-2.27c-2.43-2.54-4.62-5.36-6.58-8.29c-1.2-1.8-2.41-2.27-4.31-1.59c-1.67,0.6-2.81,1.4-3.47,3.36
			c-0.58,1.73-2.39,3.03-3.63,4.56c-0.5,0.62-0.89,1.34-1.61,2.41c1.03-0.33,1.49-0.47,2.13-0.7c-0.23,1.94-0.39,3.73-0.7,5.51
			c-0.08,0.39-0.78,1.05-1.05,0.99c-1.71-0.43-4.25,0.47-4.46-3.12c-1.11,1.44-2.06,2.39-2.68,3.51c-1.73,3.18-1.2,5.36,1.42,7.76
			c3.07,2.79,4.58,6.36,4.95,10.46c0.12,1.46,0.58,2.89,0.76,3.76c-0.54,2.25-1.51,4.15-1.32,5.92c1.2,10.32,2.56,20.61,1.94,31.05
			c-0.04,0.58-0.04,1.18,0.14,1.71c0.58,1.75,1.22,3.49,1.92,5.2c0.33,0.76,0.91,1.4,1.36,2.08c0.47,0.87,0.02,2.39,0.56,2.91
			c2.64,2.5,3.18,6.23,5.72,8.91c1.88,2,3.71,4.85,3.34,8.23c-0.08,0.87,0.54,1.82,0.85,2.79c0.54-0.33,0.91-0.56,1.59-0.97
			c-0.85,4.64,0.89,8.23,3.28,11.62c0.47,0.66,0.85,1.42,1.16,2.19c2.04,5.16,5.18,9.53,9.41,13.12c0.87,0.74,1.53,1.73,2.33,2.58
			c3.88,4,4.56,9.35,6.11,14.36c2.5,7.99,4.73,15.97,3.92,24.47c-0.35,3.63-1.16,6.91-4.35,9.26c-2.15,1.59-4.17,3.38-6,5.3
			c-1.94,2.04-1.51,3.59,1.24,3.73c3.84,0.19,7.72-0.27,11.55-0.66c0.83-0.08,1.82-0.91,2.35-1.65c1.96-2.74,4.13-5.45,5.49-8.5
			c1.03-2.27,1.57-5.14,1.24-7.61c-1.05-7.92-2.62-15.76-3.98-23.65c-1.09-6.4-2.19-12.81-3.26-19.21c0.14-0.06,0.31-0.14,0.45-0.21
			c1.46,2.35,2.87,4.73,4.39,7.02c2.27,3.47,3.57,7.16,3.84,11.33c0.41,6.25,0.85,12.55,1.75,18.74c1.07,7.24,0.1,13.93-3.76,20.18
			c-0.66,1.05-1.03,2.27-1.65,3.32c-0.89,1.51-0.68,2.54,0.89,3.45c3.47,2.02,7.24,2.27,10.96,1.4c1.55-0.35,3.71-1.8,4-3.12
			c0.78-3.47,1.28-7.22,0.8-10.71c-0.58-4.23-0.87-8.34-0.19-12.52c0.52-3.26,0.91-6.54,1.36-9.8c1.2-8.75,2.39-17.48,3.57-26.23
			c0.23-1.57,0.5-2.85,2.68-2.64c7.39,0.7,14.79,1.2,22.18,1.9c4.87,0.45,9.59,1.84,13.04,5.34c5.57,5.72,11.18,11.47,15.97,17.83
			c6.83,9.06,3.49,21.05-6.58,26c-0.52,0.25-1.09,0.45-1.53,0.8c-1.28,1.01-1.77,3.88-0.8,4.56c3.03,2.17,13.7,0.87,16.03-1.98
			c0.35-0.43,0.6-0.99,0.78-1.53c2.7-7.61,5.41-15.23,8.09-22.84c1.13-3.18,1.05-6.09-1.53-8.67c-1.59-1.63-3.73-3.22-4.33-5.22
			c-1.18-3.73-1.4-7.76-2-11.66c5.14,3.24,9.57,6.77,14.13,10.13c3.69,2.74,6.85,5.9,9.26,9.82c1.32,2.1,2.83,4.09,4.27,6.07
			c1.8,2.46,2.66,5.16,2.15,8.15c-0.56,3.24-1.34,6.44-1.96,9.68c-0.54,2.93-2.29,4.66-5.14,5.32c-2.79,0.66-4.09,2.74-5.28,5.36
			c2.1,0.5,4,0.95,5.9,1.38c5.34,1.22,10.46-1.98,12.26-7.18c2.58-7.45,2.85-15.17,3.45-22.88c0.25-3.03-0.47-5.39-2.29-7.76
			c-4.62-5.92-7.92-12.61-9.55-19.93c-1.4-6.21-2.25-12.57-3.45-19.44c7.94,0,15.29-0.45,22.55,0.17
			c5.61,0.47,11.12,2.31,16.67,3.49c0.85,0.19,1.75,0.12,2.62,0.02c1.26-0.1,2.52-0.62,3.73-0.5c3.69,0.37,7.35,0.95,11.72,1.55
			c-1.38-1.09-2.17-1.71-2.95-2.33c0.04-0.27,0.06-0.54,0.1-0.8c4.33-0.43,8.67-0.85,13.12-1.3c-0.91-0.99-1.73-1.9-2.68-2.95
			c4.79-2.56,9.64-2.89,14.63-3.12c-2.04-0.87-4.09-1.71-6.48-2.7c4.93-4.33,10.54-2.52,15.74-3.38c-1.86-0.76-3.71-1.51-5.59-2.27
			c0-0.29-0.02-0.56-0.04-0.85c4.48-1.09,8.93-2.19,13.93-3.4c-2.35-0.58-4.31-1.07-6.27-1.55c-0.04-0.29-0.06-0.6-0.1-0.89
			c3.86-1.28,7.72-2.56,11.74-3.9c-0.58-0.33-1.11-0.56-1.53-0.93c-0.6-0.5-1.09-1.09-1.65-1.63c0.72-0.45,1.36-1.05,2.15-1.34
			c1.55-0.54,3.14-0.91,5.1-1.47c-0.72-0.47-0.97-0.68-1.26-0.85c-4.21-2.35-4.75-5.78-1.44-9.39
			C1224.76,613.78,1225.75,612.87,1226.66,611.92z M985.94,558.19c3.49,0.23,3.65,0.39,4.48,4.31
			C987.86,562.69,985.59,560.61,985.94,558.19z"/>
		<path class="st3" d="M770.11,461.42c-0.02,1.53-24.72,3.16-130.82,3.86c4.35-5.92,8.87-11.74,13.54-17.46
			c1.8-2.23,3.61-4.44,5.47-6.62c1.38-0.29,2.89-0.43,4.52-0.41c11.93,0.12,12.01,8.77,26.82,12.38c15.87,3.86,18.65-5.32,39.2-2.06
			c5.03,0.8,3.98,1.2,24.76,6.19C767.74,460.68,770.11,460.95,770.11,461.42z"/>
		<path class="st3" d="M1367.54,427.89c-57.11-1.09-114.23-2.17-171.34-3.26c6.4-4.29,16.67-10.05,30.25-12.61
			c15.7-2.95,19.29,1.51,31.51-2.52c17.7-5.84,18.26-17.87,32.77-18.9c10.01-0.72,12.5,4.81,22.68,2.52c6.15-1.38,7.86-4,11.51-6.56
			c9.08,7.76,17.87,15.87,26.35,24.29C1356.83,416.4,1362.26,422.07,1367.54,427.89z"/>
		<path class="st0" d="M1440.13,533.41c-39.49-0.47-78.97-0.97-118.48-1.42c6.05-2.04,13.91-4.09,23.21-4.97
			c7.63-0.74,14.36-0.54,19.91,0c9.62-6.38,17.62-8.01,23.21-8.29c9.99-0.54,13.78,3.12,21.54,0c6.89-2.76,7.78-7.2,14.92-8.29
			c1.24-0.19,2.29-0.23,3.2-0.14C1432.02,517.85,1436.19,525.57,1440.13,533.41z"/>
	</g>
</g>
</svg>
